<svg width="320" height="50" viewBox="0 0 320 50" fill="none" xmlns="http://www.w3.org/2000/svg">
<rect width="320" height="50" rx="10" fill="black"/>
<path d="M95.5378 11.7075C95.648 13.1454 95.1932 14.5697 94.2702 15.6777C93.8282 16.2274 93.2672 16.6697 92.6296 16.9712C91.9919 17.2727 91.2941 17.4256 90.5887 17.4183C90.5437 16.7269 90.6355 16.0333 90.8587 15.3773C91.0819 14.7213 91.4322 14.1157 91.8896 13.5951C92.8251 12.5296 94.1277 11.8556 95.5378 11.7075Z" fill="#F9F9FC"/>
<path d="M98.1102 22.1731C97.6415 22.9988 97.3894 23.9296 97.3771 24.8789C97.3783 25.9468 97.6937 26.9907 98.2842 27.8805C98.8746 28.7702 99.7139 29.4665 100.697 29.8825C100.311 31.1387 99.7279 32.3258 98.9704 33.3999C97.9531 34.9216 96.8866 36.4083 95.1937 36.4357C94.3886 36.4543 93.8451 36.2228 93.2788 35.9816C92.6881 35.7299 92.0725 35.4677 91.1093 35.4677C90.0878 35.4677 89.4447 35.7384 88.8244 35.9994C88.2884 36.225 87.7695 36.4434 87.0382 36.4737C85.426 36.5334 84.1939 34.8496 83.1396 33.3421C81.0325 30.2636 79.3918 24.6665 81.5914 20.8581C82.0992 19.9455 82.8347 19.1801 83.7263 18.6364C84.6179 18.0927 85.6351 17.7891 86.6788 17.7554C87.5932 17.7366 88.4706 18.089 89.2399 18.398C89.8281 18.6343 90.3532 18.8452 90.7831 18.8452C91.1611 18.8452 91.6714 18.6426 92.2662 18.4066C93.2032 18.0347 94.3497 17.5797 95.518 17.7023C96.4133 17.7303 97.2898 17.9667 98.0778 18.3927C98.8658 18.8188 99.5436 19.4226 100.057 20.1564C99.2487 20.6537 98.5788 21.3474 98.1102 22.1731Z" fill="#F9F9FC"/>
<path d="M126.159 31H123.909L128.006 19.3636H130.608L134.71 31H132.46L129.352 21.75H129.262L126.159 31ZM126.233 26.4375H132.369V28.1307H126.233V26.4375ZM135.352 34.2727V22.2727H137.375V23.7159H137.494C137.6 23.5038 137.75 23.2784 137.943 23.0398C138.136 22.7973 138.398 22.5909 138.727 22.4205C139.057 22.2462 139.477 22.1591 139.988 22.1591C140.663 22.1591 141.271 22.3314 141.812 22.6761C142.358 23.017 142.79 23.5227 143.108 24.1932C143.43 24.8598 143.591 25.678 143.591 26.6477C143.591 27.6061 143.434 28.4205 143.119 29.0909C142.805 29.7614 142.377 30.2727 141.835 30.625C141.293 30.9773 140.68 31.1534 139.994 31.1534C139.494 31.1534 139.079 31.0701 138.75 30.9034C138.42 30.7367 138.155 30.536 137.954 30.3011C137.757 30.0625 137.604 29.8371 137.494 29.625H137.409V34.2727H135.352ZM137.369 26.6364C137.369 27.2008 137.449 27.6951 137.608 28.1193C137.771 28.5436 138.004 28.875 138.307 29.1136C138.613 29.3485 138.985 29.4659 139.42 29.4659C139.875 29.4659 140.256 29.3447 140.562 29.1023C140.869 28.8561 141.1 28.5208 141.256 28.0966C141.415 27.6686 141.494 27.1818 141.494 26.6364C141.494 26.0947 141.417 25.6136 141.261 25.1932C141.106 24.7727 140.875 24.4432 140.568 24.2045C140.261 23.9659 139.879 23.8466 139.42 23.8466C138.981 23.8466 138.608 23.9621 138.301 24.1932C137.994 24.4242 137.761 24.7481 137.602 25.1648C137.447 25.5814 137.369 26.072 137.369 26.6364ZM144.552 34.2727V22.2727H146.575V23.7159H146.694C146.8 23.5038 146.95 23.2784 147.143 23.0398C147.336 22.7973 147.598 22.5909 147.927 22.4205C148.257 22.2462 148.677 22.1591 149.188 22.1591C149.863 22.1591 150.471 22.3314 151.012 22.6761C151.558 23.017 151.99 23.5227 152.308 24.1932C152.63 24.8598 152.791 25.678 152.791 26.6477C152.791 27.6061 152.634 28.4205 152.319 29.0909C152.005 29.7614 151.577 30.2727 151.035 30.625C150.493 30.9773 149.88 31.1534 149.194 31.1534C148.694 31.1534 148.279 31.0701 147.95 30.9034C147.62 30.7367 147.355 30.536 147.154 30.3011C146.957 30.0625 146.804 29.8371 146.694 29.625H146.609V34.2727H144.552ZM146.569 26.6364C146.569 27.2008 146.649 27.6951 146.808 28.1193C146.971 28.5436 147.204 28.875 147.507 29.1136C147.813 29.3485 148.185 29.4659 148.62 29.4659C149.075 29.4659 149.456 29.3447 149.762 29.1023C150.069 28.8561 150.3 28.5208 150.456 28.0966C150.615 27.6686 150.694 27.1818 150.694 26.6364C150.694 26.0947 150.617 25.6136 150.461 25.1932C150.306 24.7727 150.075 24.4432 149.768 24.2045C149.461 23.9659 149.079 23.8466 148.62 23.8466C148.181 23.8466 147.808 23.9621 147.501 24.1932C147.194 24.4242 146.961 24.7481 146.802 25.1648C146.647 25.5814 146.569 26.072 146.569 26.6364ZM155.809 19.3636V31H153.752V19.3636H155.809ZM160.988 31.1705C160.113 31.1705 159.357 30.9886 158.721 30.625C158.088 30.2576 157.601 29.7386 157.26 29.0682C156.919 28.3939 156.749 27.6004 156.749 26.6875C156.749 25.7898 156.919 25.0019 157.26 24.3239C157.605 23.642 158.086 23.1117 158.704 22.733C159.321 22.3504 160.046 22.1591 160.88 22.1591C161.418 22.1591 161.925 22.2462 162.402 22.4205C162.883 22.5909 163.308 22.8561 163.675 23.2159C164.046 23.5758 164.338 24.0341 164.55 24.5909C164.762 25.1439 164.868 25.803 164.868 26.5682V27.1989H157.715V25.8125H162.897C162.893 25.4186 162.808 25.0682 162.641 24.7614C162.474 24.4508 162.241 24.2064 161.942 24.0284C161.647 23.8504 161.302 23.7614 160.908 23.7614C160.488 23.7614 160.118 23.8636 159.8 24.0682C159.482 24.2689 159.234 24.5341 159.056 24.8636C158.882 25.1894 158.793 25.5473 158.789 25.9375V27.1477C158.789 27.6553 158.882 28.0909 159.067 28.4545C159.253 28.8144 159.512 29.0909 159.846 29.2841C160.179 29.4735 160.569 29.5682 161.016 29.5682C161.315 29.5682 161.586 29.5265 161.829 29.4432C162.071 29.3561 162.281 29.2292 162.459 29.0625C162.637 28.8958 162.772 28.6894 162.863 28.4432L164.783 28.6591C164.662 29.1667 164.431 29.6098 164.09 29.9886C163.753 30.3636 163.321 30.6553 162.794 30.8636C162.268 31.0682 161.666 31.1705 160.988 31.1705ZM168.576 29.064H182V30.792H168.576V29.064ZM174.208 26.248H176.32V29.752H174.208V26.248ZM170.096 18.552H180.48V23.496H172.224V25.976H170.112V21.832H178.368V20.248H170.096V18.552ZM170.112 25.144H180.816V26.84H170.112V25.144ZM189.264 18.744H191.008V20.888C191.008 21.848 190.922 22.7707 190.752 23.656C190.581 24.5307 190.32 25.352 189.968 26.12C189.626 26.8773 189.184 27.5493 188.64 28.136C188.106 28.712 187.472 29.1707 186.736 29.512L185.472 27.752C186.122 27.464 186.682 27.0853 187.152 26.616C187.632 26.136 188.026 25.592 188.336 24.984C188.645 24.3653 188.874 23.7093 189.024 23.016C189.184 22.3227 189.264 21.6133 189.264 20.888V18.744ZM189.68 18.744H191.408V20.888C191.408 21.5813 191.482 22.2587 191.632 22.92C191.781 23.5813 192.005 24.2053 192.304 24.792C192.613 25.3787 192.997 25.9013 193.456 26.36C193.925 26.808 194.474 27.1653 195.104 27.432L193.872 29.16C193.157 28.8293 192.533 28.3867 192 27.832C191.477 27.2773 191.045 26.6373 190.704 25.912C190.362 25.176 190.106 24.3867 189.936 23.544C189.765 22.6907 189.68 21.8053 189.68 20.888V18.744ZM195.824 17.576H197.952V32.44H195.824V17.576ZM202.879 19.112H204.623V20.04C204.623 20.9787 204.468 21.864 204.159 22.696C203.86 23.528 203.401 24.2587 202.783 24.888C202.175 25.5067 201.401 25.9707 200.463 26.28L199.359 24.632C200.18 24.3547 200.847 23.976 201.359 23.496C201.881 23.016 202.265 22.4773 202.511 21.88C202.756 21.272 202.879 20.6587 202.879 20.04V19.112ZM203.295 19.112H205.023V20.04C205.023 20.616 205.14 21.192 205.375 21.768C205.609 22.3333 205.977 22.8453 206.479 23.304C206.991 23.752 207.641 24.104 208.431 24.36L207.359 26.024C206.431 25.7253 205.668 25.272 205.071 24.664C204.473 24.056 204.025 23.3573 203.727 22.568C203.439 21.768 203.295 20.9253 203.295 20.04V19.112ZM199.919 18.472H207.935V20.168H199.919V18.472ZM209.103 17.608H211.231V26.52H209.103V17.608ZM210.655 21.176H213.199V22.936H210.655V21.176ZM201.343 27.176H211.231V32.424H209.103V28.872H201.343V27.176ZM222.989 17.608H225.117V32.424H222.989V17.608ZM224.637 23.384H227.245V25.144H224.637V23.384ZM213.421 19.784H222.061V21.48H213.421V19.784ZM217.773 22.328C218.488 22.328 219.128 22.4827 219.693 22.792C220.259 23.0907 220.701 23.5013 221.021 24.024C221.352 24.5467 221.517 25.1547 221.517 25.848C221.517 26.5413 221.352 27.1547 221.021 27.688C220.701 28.2107 220.259 28.6267 219.693 28.936C219.139 29.2347 218.499 29.384 217.773 29.384C217.059 29.384 216.413 29.2347 215.837 28.936C215.272 28.6267 214.824 28.2107 214.493 27.688C214.173 27.1547 214.013 26.5413 214.013 25.848C214.013 25.1547 214.173 24.5467 214.493 24.024C214.824 23.5013 215.272 23.0907 215.837 22.792C216.413 22.4827 217.059 22.328 217.773 22.328ZM217.773 24.056C217.432 24.056 217.133 24.1253 216.877 24.264C216.621 24.4027 216.419 24.6053 216.269 24.872C216.12 25.1387 216.045 25.464 216.045 25.848C216.045 26.2213 216.12 26.5467 216.269 26.824C216.419 27.0907 216.621 27.2987 216.877 27.448C217.133 27.5867 217.432 27.656 217.773 27.656C218.104 27.656 218.397 27.5867 218.653 27.448C218.909 27.2987 219.112 27.0907 219.261 26.824C219.411 26.5467 219.485 26.2213 219.485 25.848C219.485 25.464 219.411 25.1387 219.261 24.872C219.112 24.6053 218.909 24.4027 218.653 24.264C218.397 24.1253 218.104 24.056 217.773 24.056ZM216.685 17.848H218.829V20.44H216.685V17.848ZM237.628 17.592H239.756V32.408H237.628V17.592ZM233.26 19.128H235.356C235.356 20.2587 235.244 21.3413 235.02 22.376C234.807 23.4 234.444 24.3653 233.932 25.272C233.431 26.1787 232.737 27.0213 231.852 27.8C230.977 28.568 229.884 29.272 228.572 29.912L227.452 28.232C228.881 27.5387 230.017 26.776 230.86 25.944C231.713 25.1013 232.327 24.152 232.7 23.096C233.073 22.0293 233.26 20.8347 233.26 19.512V19.128ZM228.252 19.128H234.252V20.824H228.252V19.128Z" fill="#F9F9FC"/>
</svg>
