<svg width="36" height="36" viewBox="0 0 36 36" fill="none" xmlns="http://www.w3.org/2000/svg">
<g id="Apple">
<g id="Vector">
<path d="M22.5378 4.70752C22.648 6.14545 22.1932 7.56966 21.2702 8.67771C20.8282 9.22744 20.2672 9.66971 19.6296 9.97121C18.9919 10.2727 18.2941 10.4256 17.5887 10.4183C17.5437 9.72686 17.6355 9.03329 17.8587 8.37728C18.0819 7.72126 18.4322 7.11568 18.8896 6.59513C19.8251 5.5296 21.1277 4.85563 22.5378 4.70752Z" fill="#F9F9FC"/>
<path d="M25.1102 15.1731C24.6415 15.9988 24.3894 16.9296 24.3771 17.8789C24.3783 18.9468 24.6937 19.9907 25.2842 20.8805C25.8746 21.7702 26.7139 22.4665 27.6974 22.8825C27.3107 24.1387 26.7279 25.3258 25.9704 26.3999C24.9531 27.9216 23.8866 29.4083 22.1937 29.4357C21.3886 29.4543 20.8451 29.2228 20.2788 28.9816C19.6881 28.7299 19.0725 28.4677 18.1093 28.4677C17.0878 28.4677 16.4447 28.7384 15.8244 28.9994C15.2884 29.225 14.7695 29.4434 14.0382 29.4737C12.426 29.5334 11.1939 27.8496 10.1396 26.3421C8.03251 23.2636 6.39176 17.6665 8.59141 13.8581C9.09922 12.9455 9.83474 12.1801 10.7263 11.6364C11.6179 11.0927 12.6351 10.7891 13.6788 10.7554C14.5932 10.7366 15.4706 11.089 16.2399 11.398C16.8281 11.6343 17.3532 11.8452 17.7831 11.8452C18.1611 11.8452 18.6714 11.6426 19.2662 11.4066C20.2032 11.0347 21.3497 10.5797 22.518 10.7023C23.4133 10.7303 24.2898 10.9667 25.0778 11.3927C25.8658 11.8188 26.5436 12.4226 27.0574 13.1564C26.2487 13.6537 25.5788 14.3474 25.1102 15.1731Z" fill="#F9F9FC"/>
</g>
</g>
</svg>
