<svg width="25" height="24" viewBox="0 0 25 24" fill="none" xmlns="http://www.w3.org/2000/svg">
<g id="lucide/clapperboard">
<path id="Vector" d="M3.50093 11L20.7009 5.99995L19.9009 3.39995C19.6009 2.39995 18.5009 1.79995 17.4009 2.09995L3.90093 6.09995C2.90093 6.39995 2.30093 7.49995 2.60093 8.59995L3.50093 11ZM3.50093 11H21.5009V19C21.5009 19.5304 21.2902 20.0391 20.9151 20.4142C20.5401 20.7892 20.0314 21 19.5009 21H5.50093C4.9705 21 4.46179 20.7892 4.08672 20.4142C3.71164 20.0391 3.50093 19.5304 3.50093 19V11ZM6.70093 5.29995L9.80093 9.19995M12.9009 3.39995L16.0009 7.39995" stroke="#2B2B2B" stroke-width="2" stroke-linecap="round" stroke-linejoin="round"/>
</g>
</svg>
