<svg width="25" height="24" viewBox="0 0 25 24" fill="none" xmlns="http://www.w3.org/2000/svg">
<g id="lucide/flower-2">
<path id="Vector" d="M12.5 5C12.5 4.40666 12.6759 3.82664 13.0056 3.33329C13.3352 2.83994 13.8038 2.45543 14.3519 2.22836C14.9001 2.0013 15.5033 1.94189 16.0853 2.05765C16.6672 2.1734 17.2018 2.45912 17.6213 2.87868C18.0409 3.29824 18.3266 3.83279 18.4424 4.41473C18.5581 4.99667 18.4987 5.59987 18.2716 6.14805C18.0446 6.69623 17.6601 7.16477 17.1667 7.49441C16.6734 7.82405 16.0933 8 15.5 8M12.5 5C12.5 4.40666 12.3241 3.82664 11.9944 3.33329C11.6648 2.83994 11.1962 2.45543 10.6481 2.22836C10.0999 2.0013 9.49667 1.94189 8.91473 2.05765C8.33279 2.1734 7.79824 2.45912 7.37868 2.87868C6.95912 3.29824 6.6734 3.83279 6.55764 4.41473C6.44189 4.99667 6.5013 5.59987 6.72836 6.14805C6.95542 6.69623 7.33994 7.16477 7.83329 7.49441C8.32664 7.82405 8.90666 8 9.5 8M12.5 5V6M15.5 8C16.0933 8 16.6734 8.17595 17.1667 8.50559C17.6601 8.83524 18.0446 9.30377 18.2716 9.85195C18.4987 10.4001 18.5581 11.0033 18.4424 11.5853C18.3266 12.1672 18.0409 12.7018 17.6213 13.1213C17.2018 13.5409 16.6672 13.8266 16.0853 13.9424C15.5033 14.0581 14.9001 13.9987 14.3519 13.7716C13.8038 13.5446 13.3352 13.1601 13.0056 12.6667C12.6759 12.1734 12.5 11.5933 12.5 11M15.5 8H14.5M9.5 8C8.90666 8 8.32664 8.17595 7.83329 8.50559C7.33994 8.83524 6.95542 9.30377 6.72836 9.85195C6.5013 10.4001 6.44189 11.0033 6.55764 11.5853C6.6734 12.1672 6.95912 12.7018 7.37868 13.1213C7.79824 13.5409 8.33279 13.8266 8.91473 13.9424C9.49667 14.0581 10.0999 13.9987 10.6481 13.7716C11.1962 13.5446 11.6648 13.1601 11.9944 12.6667C12.3241 12.1734 12.5 11.5933 12.5 11M9.5 8H10.5M12.5 6C11.3954 6 10.5 6.89543 10.5 8M12.5 6C13.6046 6 14.5 6.89543 14.5 8M12.5 11V10M10.5 8C10.5 9.10457 11.3954 10 12.5 10M14.5 8C14.5 9.10457 13.6046 10 12.5 10M12.5 10V22M12.5 22C16.7 22 19.5 20.333 19.5 17C15.3 17 12.5 18.667 12.5 22ZM12.5 22C8.3 22 5.5 20.333 5.5 17C9.7 17 12.5 18.667 12.5 22Z" stroke="#2B2B2B" stroke-width="2" stroke-linecap="round" stroke-linejoin="round"/>
</g>
</svg>
