<svg width="21" height="20" viewBox="0 0 21 20" fill="none" xmlns="http://www.w3.org/2000/svg">
<g id="Group">
<path id="Shape" fill-rule="evenodd" clip-rule="evenodd" d="M20.1039 10.2271C20.1039 9.518 20.0403 8.83619 19.9221 8.18164H10.5039V12.0498H15.8857C15.6539 13.2998 14.9494 14.3589 13.8903 15.068V17.5771H17.1221C19.013 15.8362 20.1039 13.2725 20.1039 10.2271Z" fill="#4285F4"/>
<path id="Shape_2" fill-rule="evenodd" clip-rule="evenodd" d="M10.5028 19.9999C13.2028 19.9999 15.4664 19.1044 17.1209 17.5772L13.8891 15.0681C12.9937 15.6681 11.8482 16.0226 10.5028 16.0226C7.89822 16.0226 5.69367 14.2635 4.90731 11.8999H1.56641V14.4908C3.21186 17.759 6.59367 19.9999 10.5028 19.9999Z" fill="#34A853"/>
<path id="Shape_3" fill-rule="evenodd" clip-rule="evenodd" d="M4.90454 11.9002C4.70454 11.3002 4.5909 10.6593 4.5909 10.0002C4.5909 9.34109 4.70454 8.70018 4.90454 8.10018V5.50928H1.56363C0.886363 6.85928 0.5 8.38655 0.5 10.0002C0.5 11.6138 0.886363 13.1411 1.56363 14.4911L4.90454 11.9002Z" fill="#FBBC05"/>
<path id="Shape_4" fill-rule="evenodd" clip-rule="evenodd" d="M10.5028 3.97727C11.9709 3.97727 13.2891 4.48181 14.3255 5.47272L17.1937 2.60454C15.4618 0.990908 13.1982 0 10.5028 0C6.59367 0 3.21186 2.24091 1.56641 5.50908L4.90731 8.09999C5.69367 5.73636 7.89822 3.97727 10.5028 3.97727Z" fill="#EA4335"/>
</g>
</svg>
