<svg width="320" height="50" viewBox="0 0 320 50" fill="none" xmlns="http://www.w3.org/2000/svg">
<rect width="320" height="50" rx="10" fill="white"/>
<path fill-rule="evenodd" clip-rule="evenodd" d="M97.1039 25.2271C97.1039 24.518 97.0403 23.8362 96.9221 23.1816H87.5039V27.0498H92.8857C92.6539 28.2998 91.9494 29.3589 90.8903 30.068V32.5771H94.1221C96.013 30.8362 97.1039 28.2725 97.1039 25.2271Z" fill="#4285F4"/>
<path fill-rule="evenodd" clip-rule="evenodd" d="M87.5028 34.9999C90.2028 34.9999 92.4664 34.1044 94.1209 32.5772L90.8891 30.0681C89.9937 30.6681 88.8482 31.0226 87.5028 31.0226C84.8982 31.0226 82.6937 29.2635 81.9073 26.8999H78.5664V29.4908C80.2119 32.759 83.5937 34.9999 87.5028 34.9999Z" fill="#34A853"/>
<path fill-rule="evenodd" clip-rule="evenodd" d="M81.9045 26.9002C81.7045 26.3002 81.5909 25.6593 81.5909 25.0002C81.5909 24.3411 81.7045 23.7002 81.9045 23.1002V20.5093H78.5636C77.8864 21.8593 77.5 23.3865 77.5 25.0002C77.5 26.6138 77.8864 28.1411 78.5636 29.4911L81.9045 26.9002Z" fill="#FBBC05"/>
<path fill-rule="evenodd" clip-rule="evenodd" d="M87.5028 18.9773C88.9709 18.9773 90.2891 19.4818 91.3255 20.4727L94.1937 17.6045C92.4618 15.9909 90.1982 15 87.5028 15C83.5937 15 80.2119 17.2409 78.5664 20.5091L81.9073 23.1C82.6937 20.7364 84.8982 18.9773 87.5028 18.9773Z" fill="#EA4335"/>
<path d="M115.179 22.5625C115.126 22.0663 114.903 21.6799 114.509 21.4034C114.119 21.1269 113.611 20.9886 112.986 20.9886C112.547 20.9886 112.17 21.0549 111.856 21.1875C111.541 21.3201 111.301 21.5 111.134 21.7273C110.967 21.9545 110.882 22.214 110.878 22.5057C110.878 22.7481 110.933 22.9583 111.043 23.1364C111.157 23.3144 111.31 23.4659 111.503 23.5909C111.696 23.7121 111.91 23.8144 112.145 23.8977C112.38 23.9811 112.617 24.0511 112.856 24.108L113.946 24.3807C114.386 24.483 114.808 24.6212 115.213 24.7955C115.623 24.9697 115.988 25.1894 116.31 25.4545C116.636 25.7197 116.893 26.0398 117.083 26.4148C117.272 26.7898 117.367 27.2292 117.367 27.733C117.367 28.4148 117.193 29.0152 116.844 29.5341C116.496 30.0492 115.992 30.4527 115.333 30.7443C114.678 31.0322 113.884 31.1761 112.952 31.1761C112.047 31.1761 111.261 31.036 110.594 30.7557C109.931 30.4754 109.412 30.0663 109.037 29.5284C108.666 28.9905 108.465 28.3352 108.435 27.5625H110.509C110.539 27.9678 110.664 28.3049 110.884 28.5739C111.104 28.8428 111.39 29.0436 111.742 29.1761C112.098 29.3087 112.496 29.375 112.935 29.375C113.393 29.375 113.795 29.3068 114.14 29.1705C114.488 29.0303 114.761 28.8371 114.958 28.5909C115.155 28.3409 115.255 28.0492 115.259 27.7159C115.255 27.4129 115.166 27.1629 114.992 26.9659C114.818 26.7652 114.573 26.5985 114.259 26.4659C113.948 26.3295 113.585 26.2083 113.168 26.1023L111.844 25.7614C110.886 25.5152 110.128 25.142 109.571 24.642C109.018 24.1383 108.742 23.4697 108.742 22.6364C108.742 21.9508 108.928 21.3504 109.299 20.8352C109.674 20.3201 110.183 19.9205 110.827 19.6364C111.471 19.3485 112.2 19.2045 113.015 19.2045C113.84 19.2045 114.564 19.3485 115.185 19.6364C115.81 19.9205 116.301 20.3163 116.657 20.8239C117.013 21.3277 117.196 21.9072 117.208 22.5625H115.179ZM118.355 31V22.2727H120.412V31H118.355ZM119.389 21.0341C119.064 21.0341 118.783 20.9261 118.548 20.7102C118.314 20.4905 118.196 20.2273 118.196 19.9205C118.196 19.6098 118.314 19.3466 118.548 19.1307C118.783 18.911 119.064 18.8011 119.389 18.8011C119.719 18.8011 119.999 18.911 120.23 19.1307C120.465 19.3466 120.583 19.6098 120.583 19.9205C120.583 20.2273 120.465 20.4905 120.23 20.7102C119.999 20.9261 119.719 21.0341 119.389 21.0341ZM125.523 34.4545C124.784 34.4545 124.149 34.3542 123.619 34.1534C123.089 33.9564 122.663 33.6913 122.341 33.358C122.019 33.0246 121.795 32.6553 121.67 32.25L123.523 31.8011C123.606 31.9716 123.727 32.1402 123.886 32.3068C124.045 32.4773 124.259 32.6174 124.528 32.7273C124.801 32.8409 125.144 32.8977 125.557 32.8977C126.14 32.8977 126.623 32.7557 127.006 32.4716C127.388 32.1913 127.579 31.7292 127.579 31.0852V29.4318H127.477C127.371 29.6439 127.216 29.8617 127.011 30.0852C126.81 30.3087 126.543 30.4962 126.21 30.6477C125.881 30.7992 125.466 30.875 124.966 30.875C124.295 30.875 123.687 30.7178 123.142 30.4034C122.6 30.0852 122.168 29.6117 121.846 28.983C121.528 28.3504 121.369 27.5587 121.369 26.608C121.369 25.6496 121.528 24.8409 121.846 24.1818C122.168 23.5189 122.602 23.017 123.148 22.6761C123.693 22.3314 124.301 22.1591 124.971 22.1591C125.483 22.1591 125.903 22.2462 126.233 22.4205C126.566 22.5909 126.831 22.7973 127.028 23.0398C127.225 23.2784 127.375 23.5038 127.477 23.7159H127.591V22.2727H129.619V31.142C129.619 31.8883 129.441 32.5057 129.085 32.9943C128.729 33.483 128.242 33.8485 127.625 34.0909C127.007 34.3333 126.307 34.4545 125.523 34.4545ZM125.54 29.2614C125.975 29.2614 126.346 29.1553 126.653 28.9432C126.96 28.7311 127.193 28.4261 127.352 28.0284C127.511 27.6307 127.591 27.1534 127.591 26.5966C127.591 26.0473 127.511 25.5663 127.352 25.1534C127.197 24.7405 126.966 24.4205 126.659 24.1932C126.356 23.9621 125.983 23.8466 125.54 23.8466C125.081 23.8466 124.699 23.9659 124.392 24.2045C124.085 24.4432 123.854 24.7708 123.699 25.1875C123.543 25.6004 123.466 26.0701 123.466 26.5966C123.466 27.1307 123.543 27.5985 123.699 28C123.858 28.3977 124.091 28.7083 124.398 28.9318C124.708 29.1515 125.089 29.2614 125.54 29.2614ZM132.984 25.8864V31H130.927V22.2727H132.893V23.7557H132.995C133.196 23.267 133.516 22.8788 133.956 22.5909C134.399 22.303 134.946 22.1591 135.598 22.1591C136.2 22.1591 136.724 22.2879 137.171 22.5455C137.622 22.803 137.971 23.1761 138.217 23.6648C138.467 24.1534 138.59 24.7462 138.586 25.4432V31H136.529V25.7614C136.529 25.178 136.378 24.7216 136.075 24.392C135.776 24.0625 135.361 23.8977 134.831 23.8977C134.471 23.8977 134.151 23.9773 133.87 24.1364C133.594 24.2917 133.376 24.517 133.217 24.8125C133.062 25.108 132.984 25.4659 132.984 25.8864ZM143.046 31V22.2727H145.103V31H143.046ZM144.08 21.0341C143.754 21.0341 143.474 20.9261 143.239 20.7102C143.004 20.4905 142.887 20.2273 142.887 19.9205C142.887 19.6098 143.004 19.3466 143.239 19.1307C143.474 18.911 143.754 18.8011 144.08 18.8011C144.41 18.8011 144.69 18.911 144.921 19.1307C145.156 19.3466 145.273 19.6098 145.273 19.9205C145.273 20.2273 145.156 20.4905 144.921 20.7102C144.69 20.9261 144.41 21.0341 144.08 21.0341ZM148.475 25.8864V31H146.418V22.2727H148.384V23.7557H148.486C148.687 23.267 149.007 22.8788 149.446 22.5909C149.889 22.303 150.437 22.1591 151.088 22.1591C151.69 22.1591 152.215 22.2879 152.662 22.5455C153.113 22.803 153.461 23.1761 153.708 23.6648C153.958 24.1534 154.081 24.7462 154.077 25.4432V31H152.02V25.7614C152.02 25.178 151.869 24.7216 151.565 24.392C151.266 24.0625 150.851 23.8977 150.321 23.8977C149.961 23.8977 149.641 23.9773 149.361 24.1364C149.084 24.2917 148.867 24.517 148.708 24.8125C148.552 25.108 148.475 25.4659 148.475 25.8864ZM160.338 31L157.872 22.2727H159.968L161.502 28.4091H161.582L163.15 22.2727H165.224L166.792 28.375H166.877L168.389 22.2727H170.491L168.019 31H165.877L164.241 25.1023H164.122L162.485 31H160.338ZM171.127 31V22.2727H173.184V31H171.127ZM172.161 21.0341C171.835 21.0341 171.555 20.9261 171.32 20.7102C171.085 20.4905 170.968 20.2273 170.968 19.9205C170.968 19.6098 171.085 19.3466 171.32 19.1307C171.555 18.911 171.835 18.8011 172.161 18.8011C172.491 18.8011 172.771 18.911 173.002 19.1307C173.237 19.3466 173.354 19.6098 173.354 19.9205C173.354 20.2273 173.237 20.4905 173.002 20.7102C172.771 20.9261 172.491 21.0341 172.161 21.0341ZM178.857 22.2727V23.8636H173.84V22.2727H178.857ZM175.079 20.1818H177.135V28.375C177.135 28.6515 177.177 28.8636 177.26 29.0114C177.347 29.1553 177.461 29.2538 177.601 29.3068C177.741 29.3598 177.897 29.3864 178.067 29.3864C178.196 29.3864 178.313 29.3769 178.419 29.358C178.529 29.339 178.613 29.322 178.669 29.3068L179.016 30.9148C178.906 30.9527 178.749 30.9943 178.544 31.0398C178.344 31.0852 178.097 31.1117 177.806 31.1193C177.291 31.1345 176.827 31.0568 176.414 30.8864C176.001 30.7121 175.673 30.4432 175.431 30.0795C175.192 29.7159 175.075 29.2614 175.079 28.7159V20.1818ZM182.021 25.8864V31H179.965V19.3636H181.976V23.7557H182.078C182.283 23.2633 182.599 22.875 183.027 22.5909C183.459 22.303 184.008 22.1591 184.675 22.1591C185.281 22.1591 185.809 22.286 186.26 22.5398C186.711 22.7936 187.059 23.1648 187.306 23.6534C187.556 24.142 187.681 24.7386 187.681 25.4432V31H185.624V25.7614C185.624 25.1742 185.472 24.7178 185.169 24.392C184.87 24.0625 184.449 23.8977 183.908 23.8977C183.544 23.8977 183.218 23.9773 182.931 24.1364C182.646 24.2917 182.423 24.517 182.26 24.8125C182.101 25.108 182.021 25.4659 182.021 25.8864ZM200.032 23.0795C199.938 22.7727 199.807 22.4981 199.64 22.2557C199.477 22.0095 199.28 21.7992 199.049 21.625C198.822 21.4508 198.561 21.3201 198.265 21.233C197.97 21.142 197.648 21.0966 197.299 21.0966C196.674 21.0966 196.117 21.2538 195.629 21.5682C195.14 21.8826 194.756 22.3447 194.475 22.9545C194.199 23.5606 194.061 24.2992 194.061 25.1705C194.061 26.0492 194.199 26.7936 194.475 27.4034C194.752 28.0133 195.136 28.4773 195.629 28.7955C196.121 29.1098 196.693 29.267 197.345 29.267C197.936 29.267 198.447 29.1534 198.879 28.9261C199.314 28.6989 199.65 28.3769 199.885 27.9602C200.119 27.5398 200.237 27.0473 200.237 26.483L200.714 26.5568H197.555V24.9091H202.277V26.3068C202.277 27.303 202.064 28.1648 201.64 28.892C201.216 29.6193 200.633 30.1799 199.89 30.5739C199.148 30.964 198.295 31.1591 197.333 31.1591C196.261 31.1591 195.32 30.9186 194.51 30.4375C193.703 29.9527 193.072 29.2652 192.617 28.375C192.167 27.4811 191.941 26.4205 191.941 25.1932C191.941 24.2538 192.074 23.4148 192.339 22.6761C192.608 21.9375 192.983 21.3106 193.464 20.7955C193.945 20.2765 194.51 19.8826 195.157 19.6136C195.805 19.3409 196.51 19.2045 197.271 19.2045C197.915 19.2045 198.515 19.2992 199.072 19.4886C199.629 19.6742 200.123 19.9394 200.555 20.2841C200.991 20.6288 201.349 21.0379 201.629 21.5114C201.909 21.9848 202.093 22.5076 202.18 23.0795H200.032ZM207.231 31.1705C206.379 31.1705 205.64 30.983 205.015 30.608C204.39 30.233 203.905 29.7083 203.56 29.0341C203.219 28.3598 203.049 27.572 203.049 26.6705C203.049 25.7689 203.219 24.9792 203.56 24.3011C203.905 23.6231 204.39 23.0966 205.015 22.7216C205.64 22.3466 206.379 22.1591 207.231 22.1591C208.083 22.1591 208.822 22.3466 209.447 22.7216C210.072 23.0966 210.555 23.6231 210.896 24.3011C211.24 24.9792 211.413 25.7689 211.413 26.6705C211.413 27.572 211.24 28.3598 210.896 29.0341C210.555 29.7083 210.072 30.233 209.447 30.608C208.822 30.983 208.083 31.1705 207.231 31.1705ZM207.242 29.5227C207.704 29.5227 208.091 29.3958 208.401 29.142C208.712 28.8845 208.943 28.5398 209.094 28.108C209.25 27.6761 209.327 27.1951 209.327 26.6648C209.327 26.1307 209.25 25.6477 209.094 25.2159C208.943 24.7803 208.712 24.4337 208.401 24.1761C208.091 23.9186 207.704 23.7898 207.242 23.7898C206.769 23.7898 206.375 23.9186 206.06 24.1761C205.75 24.4337 205.517 24.7803 205.362 25.2159C205.21 25.6477 205.134 26.1307 205.134 26.6648C205.134 27.1951 205.21 27.6761 205.362 28.108C205.517 28.5398 205.75 28.8845 206.06 29.142C206.375 29.3958 206.769 29.5227 207.242 29.5227ZM216.165 31.1705C215.313 31.1705 214.574 30.983 213.949 30.608C213.324 30.233 212.839 29.7083 212.495 29.0341C212.154 28.3598 211.983 27.572 211.983 26.6705C211.983 25.7689 212.154 24.9792 212.495 24.3011C212.839 23.6231 213.324 23.0966 213.949 22.7216C214.574 22.3466 215.313 22.1591 216.165 22.1591C217.017 22.1591 217.756 22.3466 218.381 22.7216C219.006 23.0966 219.489 23.6231 219.83 24.3011C220.175 24.9792 220.347 25.7689 220.347 26.6705C220.347 27.572 220.175 28.3598 219.83 29.0341C219.489 29.7083 219.006 30.233 218.381 30.608C217.756 30.983 217.017 31.1705 216.165 31.1705ZM216.177 29.5227C216.639 29.5227 217.025 29.3958 217.336 29.142C217.646 28.8845 217.877 28.5398 218.029 28.108C218.184 27.6761 218.262 27.1951 218.262 26.6648C218.262 26.1307 218.184 25.6477 218.029 25.2159C217.877 24.7803 217.646 24.4337 217.336 24.1761C217.025 23.9186 216.639 23.7898 216.177 23.7898C215.703 23.7898 215.309 23.9186 214.995 24.1761C214.684 24.4337 214.451 24.7803 214.296 25.2159C214.144 25.6477 214.069 26.1307 214.069 26.6648C214.069 27.1951 214.144 27.6761 214.296 28.108C214.451 28.5398 214.684 28.8845 214.995 29.142C215.309 29.3958 215.703 29.5227 216.177 29.5227ZM225.088 34.4545C224.35 34.4545 223.715 34.3542 223.185 34.1534C222.654 33.9564 222.228 33.6913 221.906 33.358C221.584 33.0246 221.361 32.6553 221.236 32.25L223.088 31.8011C223.172 31.9716 223.293 32.1402 223.452 32.3068C223.611 32.4773 223.825 32.6174 224.094 32.7273C224.367 32.8409 224.709 32.8977 225.122 32.8977C225.706 32.8977 226.189 32.7557 226.571 32.4716C226.954 32.1913 227.145 31.7292 227.145 31.0852V29.4318H227.043C226.937 29.6439 226.781 29.8617 226.577 30.0852C226.376 30.3087 226.109 30.4962 225.776 30.6477C225.446 30.7992 225.031 30.875 224.531 30.875C223.861 30.875 223.253 30.7178 222.708 30.4034C222.166 30.0852 221.734 29.6117 221.412 28.983C221.094 28.3504 220.935 27.5587 220.935 26.608C220.935 25.6496 221.094 24.8409 221.412 24.1818C221.734 23.5189 222.168 23.017 222.713 22.6761C223.259 22.3314 223.867 22.1591 224.537 22.1591C225.048 22.1591 225.469 22.2462 225.798 22.4205C226.132 22.5909 226.397 22.7973 226.594 23.0398C226.791 23.2784 226.94 23.5038 227.043 23.7159H227.156V22.2727H229.185V31.142C229.185 31.8883 229.007 32.5057 228.651 32.9943C228.295 33.483 227.808 33.8485 227.19 34.0909C226.573 34.3333 225.872 34.4545 225.088 34.4545ZM225.105 29.2614C225.541 29.2614 225.912 29.1553 226.219 28.9432C226.526 28.7311 226.759 28.4261 226.918 28.0284C227.077 27.6307 227.156 27.1534 227.156 26.5966C227.156 26.0473 227.077 25.5663 226.918 25.1534C226.762 24.7405 226.531 24.4205 226.225 24.1932C225.922 23.9621 225.548 23.8466 225.105 23.8466C224.647 23.8466 224.264 23.9659 223.958 24.2045C223.651 24.4432 223.42 24.7708 223.264 25.1875C223.109 25.6004 223.031 26.0701 223.031 26.5966C223.031 27.1307 223.109 27.5985 223.264 28C223.423 28.3977 223.656 28.7083 223.963 28.9318C224.274 29.1515 224.654 29.2614 225.105 29.2614ZM232.55 19.3636V31H230.493V19.3636H232.55ZM237.728 31.1705C236.853 31.1705 236.098 30.9886 235.461 30.625C234.829 30.2576 234.342 29.7386 234.001 29.0682C233.66 28.3939 233.49 27.6004 233.49 26.6875C233.49 25.7898 233.66 25.0019 234.001 24.3239C234.346 23.642 234.827 23.1117 235.444 22.733C236.062 22.3504 236.787 22.1591 237.62 22.1591C238.158 22.1591 238.666 22.2462 239.143 22.4205C239.624 22.5909 240.048 22.8561 240.416 23.2159C240.787 23.5758 241.079 24.0341 241.291 24.5909C241.503 25.1439 241.609 25.803 241.609 26.5682V27.1989H234.456V25.8125H239.637C239.634 25.4186 239.548 25.0682 239.382 24.7614C239.215 24.4508 238.982 24.2064 238.683 24.0284C238.387 23.8504 238.043 23.7614 237.649 23.7614C237.228 23.7614 236.859 23.8636 236.541 24.0682C236.223 24.2689 235.974 24.5341 235.796 24.8636C235.622 25.1894 235.533 25.5473 235.529 25.9375V27.1477C235.529 27.6553 235.622 28.0909 235.808 28.4545C235.993 28.8144 236.253 29.0909 236.586 29.2841C236.92 29.4735 237.31 29.5682 237.757 29.5682C238.056 29.5682 238.327 29.5265 238.569 29.4432C238.812 29.3561 239.022 29.2292 239.2 29.0625C239.378 28.8958 239.512 28.6894 239.603 28.4432L241.524 28.6591C241.403 29.1667 241.171 29.6098 240.831 29.9886C240.493 30.3636 240.062 30.6553 239.535 30.8636C239.009 31.0682 238.406 31.1705 237.728 31.1705Z" fill="#2B2B2B"/>
</svg>
