<svg width="105" height="211" viewBox="0 0 105 211" fill="none" xmlns="http://www.w3.org/2000/svg">
<g id="DESIGNED_BY_FREEPIK" clip-path="url(#clip0_2940_7706)">
<path id="Vector" d="M0.200356 210.775C0.64468 207.347 -0.421697 202.574 0.200356 199.387C0.5939 197.381 2.62509 197.61 3.03133 196.353C3.48835 194.969 2.87899 193.052 3.29793 191.478C6.71287 178.923 7.47457 166.228 9.96278 153.355C13.8094 133.5 20.7535 114.851 29.7796 96.8119C31.0745 94.2094 40.0244 77.8583 41.6875 77.8837L43.2109 80.1053C38.8057 86.6559 34.6926 93.3462 31.2522 100.481C20.0807 123.674 13.0857 146.652 9.83583 172.322C8.71867 181.157 9.32803 188.761 9.74696 197.572L16.3356 197.61L14.8884 210.787H0.200356V210.775Z" fill="#2B2B2B"/>
<path id="Vector_2" d="M98.6033 210.774H94.9344C94.8963 194.563 91.9765 178.529 89.9453 162.495C90.0215 160.045 93.411 160.299 93.4491 162.699L98.616 210.774H98.6033Z" fill="#2B2B2B"/>
<path id="Vector_3" d="M45.744 8.83568C49.9206 7.45193 47.3435 13.7867 49.6413 13.1266C54.6685 11.6793 56.522 10.2067 57.398 4.86215C58.1343 3.82117 60.686 4.29088 61.0414 5.63655L61.143 10.3083L65.0657 10.3337L66.9446 4.86215L69.217 4.43053L69.3312 11.2985L73.9903 14.7007C77.1005 12.6188 76.4023 -0.710932 79.8553 0.0380709C83.6003 0.837853 77.2021 14.1422 77.3417 16.605C77.3798 17.227 82.3309 24.5901 83.1687 26.8244C91.9156 50.2466 73.6221 88.8901 45.5409 79.1404C25.6225 72.2216 26.7777 40.1034 36.6036 25.0598C38.3047 22.4574 44.0048 17.5444 44.6014 16.1734C45.1981 14.8023 45.2489 9.22922 45.7186 8.83568H45.744ZM60.1782 13.3678C57.8042 14.1676 56.6236 22.5843 60.7875 22.1019C63.4027 21.7972 64.4056 16.2876 65.5354 14.3326C65.4212 12.9996 61.3461 12.9742 60.1782 13.3678ZM55.2779 13.9771C51.1647 15.1451 46.3914 17.0239 48.6765 22.0511C49.7683 22.8509 56.3062 16.2749 55.2779 13.9771ZM68.8615 14.7261C66.5891 15.8052 68.4553 21.7211 70.3087 21.3021L72.8604 17.3667L68.8615 14.7261ZM45.7313 19.8549C44.2968 19.6137 43.6366 20.8197 42.8241 21.7084C28.5042 37.2978 26.7777 76.1317 52.7262 77.8582C77.7099 79.5212 92.3472 36.8535 75.4756 19.8549C73.127 22.2669 71.9972 24.2474 68.176 23.4984C67.0842 23.2825 66.0559 21.9877 65.3069 22.1146C64.4056 22.2669 63.5804 24.1585 62.6283 24.6028C57.4233 27.0402 55.6968 20.6166 54.9224 20.5912C52.0534 24.8821 45.6297 26.6721 45.744 19.8422L45.7313 19.8549Z" fill="#2B2B2B"/>
<path id="Vector_4" d="M80.2494 128.168C79.1703 136.42 71.5026 140.876 64.8504 144.316C68.3923 146.233 64.7743 159.309 65.5613 160.109C68.9382 160.198 72.734 159.982 76.0093 159.169C78.4848 158.56 89.0851 154.358 91.3067 153.165C97.997 149.572 101.615 138.21 102.136 131.101C103.557 111.843 97.6669 95.1614 85.0354 80.7907C82.0775 77.4266 78.8657 75.4208 75.1207 73.0849C75.6538 70.3936 77.1772 71.2441 79.0307 72.1201C85.1878 75.0145 97.7431 90.9848 100.104 97.2942C105.665 112.147 110.083 148.15 92.2842 156.351C90.2023 157.303 79.31 161.708 77.52 162.14C74.2574 162.94 69.2302 162.445 66.0818 163.181C64.6219 163.524 63.4413 165.25 62.2734 165.238C61.3085 165.225 60.4199 163.943 59.3027 163.803C52.714 162.952 43.0405 165.644 39.2447 158.166C32.0086 143.961 51.8889 144.519 60.2802 141.955C68.6716 139.391 76.3267 135.823 77.3169 125.947C77.6089 123.052 75.9204 113.429 80.2621 117.149C79.9447 120.64 80.7064 124.779 80.2621 128.168H80.2494ZM49.0452 160.845C52.3078 161.277 56.3194 160.528 59.6963 160.845C60.3564 158.852 58.3125 158.167 57.8809 157.164C56.6368 154.244 57.4874 150.765 60.4453 149.407L59.29 145.408C54.9738 146.652 49.7307 146.716 45.5668 147.833C37.1627 150.105 40.4888 159.703 49.0452 160.845Z" fill="#2B2B2B"/>
<path id="Vector_5" d="M60.1712 13.3677C61.3391 12.9742 65.4142 12.9996 65.5285 14.3325C64.4113 16.2876 63.3957 21.7972 60.7806 22.1019C56.6166 22.5843 57.7972 14.1802 60.1712 13.3677Z" fill="#F9F9FC"/>
<path id="Vector_6" d="M55.2763 13.9772C56.3046 16.275 49.7667 22.8509 48.6749 22.0512C46.3898 17.024 51.1631 15.1451 55.2763 13.9772Z" fill="#F9F9FC"/>
<path id="Vector_7" d="M68.8554 14.7263L72.8543 17.3669L70.3026 21.3023C68.4492 21.7212 66.583 15.8054 68.8554 14.7263Z" fill="#F9F9FC"/>
<path id="Vector_8" d="M49.0425 160.845C40.4861 159.703 37.16 150.105 45.564 147.833C49.728 146.703 54.971 146.639 59.2873 145.408L60.4425 149.407C57.4846 150.765 56.6341 154.244 57.8782 157.164C58.3098 158.179 60.3537 158.865 59.6935 160.845C56.3294 160.528 52.3178 161.277 49.0425 160.845Z" fill="#F9F9FC"/>
<path id="Vector_9" d="M58.2215 63.9065L55.9745 63.5891C54.5146 62.5227 54.9589 55.6294 57.1171 54.3853C60.24 56.4164 57.3837 60.5296 58.2088 63.9192L58.2215 63.9065Z" fill="#2B2B2B"/>
<path id="Vector_10" d="M70.7004 40.4209C71.881 41.8681 71.2589 48.2536 68.885 47.7585C67.0061 47.365 68.6311 38.8975 70.7004 40.4209Z" fill="#2B2B2B"/>
<path id="Vector_11" d="M50.1346 40.4209C51.1121 42.9726 51.0867 45.6639 49.0428 47.7459C47.6718 47.7713 46.6943 39.9131 50.1346 40.4209Z" fill="#2B2B2B"/>
</g>
<defs>
<clipPath id="clip0_2940_7706">
<rect width="105" height="210.774" fill="white"/>
</clipPath>
</defs>
</svg>
