<svg width="224" height="212" viewBox="0 0 224 212" fill="none" xmlns="http://www.w3.org/2000/svg">
<g id="DESIGNED_BY_FREEPIK" clip-path="url(#clip0_2940_7678)">
<path id="Vector" d="M209.733 211.04H206.801C205.48 202.737 205.95 194.118 205.328 185.713C204.871 179.518 203.424 172.815 203.106 166.646C202.662 158.089 203.932 149.406 202.396 140.926C202.522 139.948 206.382 140.405 206.077 142.386L209.746 211.04H209.733Z" fill="#2B2B2B"/>
<path id="Vector_2" d="M120.877 211.04H117.944C119.188 204.705 118.744 198.066 119.493 191.668C120.115 186.412 121.791 180.826 122.337 175.418C122.781 170.95 122.705 141.967 125.663 141.281C127.402 140.875 127.554 143.363 127.516 144.544C126.729 165.389 122.223 186.26 121.651 207.029C121.613 208.425 121.715 209.809 120.89 211.028L120.877 211.04Z" fill="#2B2B2B"/>
<path id="Vector_3" d="M86.367 211.04H82.6982C82.7616 192.048 82.9267 172.815 79.7402 154.116C81.289 150.193 82.7109 153.379 83.244 155.791C84.9198 163.484 85.326 175.43 85.6688 183.479C86.0623 192.658 84.8309 201.976 86.367 211.053V211.04Z" fill="#2B2B2B"/>
<path id="Vector_4" d="M4.12296 211.04H1.19043L7.43635 163.307L9.89917 164.526C9.22634 180.166 5.13856 195.387 4.12296 211.04Z" fill="#2B2B2B"/>
<path id="Vector_5" d="M139.973 42.5145C139.999 42.1083 142.03 40.5976 139.618 40.6864C130.363 46.8816 141.547 56.7963 131.683 62.8645C130.566 63.55 122.911 66.9269 124.574 63.1057C125.425 61.1634 131.874 60.6429 133.055 56.8725C134.07 53.6226 130.655 47.0847 132.623 42.8954C127.494 44.7234 128.446 52.5054 124.511 55.7046C122.238 57.5453 118.938 57.5326 119.407 53.9273C125.412 54.3462 124.942 44.9012 128.256 41.8417C131.023 39.29 138.209 38.8837 140.011 35.9766C141.103 34.212 141.116 30.8097 142.043 28.4612C145.597 19.3843 151.246 10.6882 161.085 7.83187C162.228 7.50181 164.157 7.95882 164.83 7.53989C165.274 7.2606 165.224 4.75969 167.318 3.79488C169.134 2.95701 171.127 3.27438 173.018 3.24899L173.12 6.82897L178.058 7.56528C180.889 -0.788002 182.336 7.98421 183.72 8.39045L189.166 6.93053C187.744 14.6745 195.844 9.55839 195.78 15.0172L198.319 13.5446C201.823 17.607 205.416 20.6284 206.051 26.4046C206.419 29.7053 205.403 33.9835 206.381 37.0938C207.218 39.7724 211.078 40.6357 212.5 43.4666C214.899 48.2399 213.185 54.9556 214.874 58.5355C215.407 59.6527 217.73 59.5638 218.936 60.5286C222.871 63.677 221.475 72.0938 223.392 76.3466C218.885 84.5983 219.152 67.8029 218.225 64.9211C217.171 61.6712 213.122 62.8137 211.763 59.64C209.516 54.3716 214.023 44.3299 205.34 41.4735C205.2 42.9842 206.355 43.9617 206.444 45.4851C206.634 48.8493 204.311 59.4369 204.692 60.7825C205.035 62.014 207.561 62.8899 208.691 64.9211C210.316 67.8282 210.468 72.1572 211.395 75.4325C212.043 77.743 215.305 79.9773 212.309 82.5798L210.126 81.8435C207.599 77.6795 208.361 71.0401 206.457 67.1554C205.175 64.5529 202.458 64.3879 201.823 61.5062C200.82 56.9487 205.136 47.656 202.458 43.9871C201.683 42.9207 199.398 42.6668 198.878 40.9657C197.418 36.2178 201.125 28.1184 198.814 21.9233C198.434 20.9077 199.056 20.6665 197.278 20.9077C195.006 26.8362 192.073 30.4797 194.701 37.0557C195.717 39.5947 199.132 43.0604 199.462 45.5613C200.033 49.9284 195.171 54.1939 195.755 59.475C196.098 62.5852 200.719 64.9084 201.518 68.4122C202.534 72.8808 200.008 77.578 200.236 81.4372C200.439 84.903 205.898 87.5308 202.039 89.9048C193.444 84.6491 199.64 75.5722 198.599 69.9102C197.558 64.2483 191.439 65.7082 193.038 55.9458C193.546 52.8482 196.694 48.8366 196.517 46.2595C196.339 43.6824 191.515 38.9599 190.842 35.0372C190.106 30.759 191.629 27.2552 191.388 23.0912C189.623 23.5355 189.864 25.9603 188.684 26.7981C187.668 27.5218 185.51 27.5725 185.51 26.3919V15.7408L182.171 22.3168L180 23.8402C176.7 23.1166 177.398 19.8159 177.423 17.2134C174.808 21.0981 170.225 23.3832 169.337 17.2134L165.274 17.3023L164.208 13.5319C163.434 12.7067 155.588 18.8003 154.636 19.7524C149.634 24.6781 143.553 37.1445 142.931 44.0252C140.037 76.1434 172.066 85.0172 191.02 62.014C192.619 66.2795 189.065 68.2472 186.17 70.3799C178.452 76.0546 169.895 79.1522 159.765 77.1083C158.774 76.9051 150.764 73.9091 150.434 73.541C150.155 73.2236 150.383 72.1445 150.053 71.8145C145.788 67.4855 139.986 60.1732 139.986 53.5591C139.986 49.9791 139.745 46.0691 139.986 42.5399L139.973 42.5145ZM176.687 10.574L172.32 10.6121C172.447 12.4528 170.327 16.8326 172.663 17.9117C173.818 18.4449 174.288 16.3883 174.732 15.6139C175.138 14.9157 177.03 10.8787 176.687 10.574Z" fill="#2B2B2B"/>
<path id="Vector_6" d="M144.38 75.2039C144.761 77.0573 144.126 77.0446 143.162 78.0222C140.47 80.7389 137.005 82.4908 134.529 85.5503C127.94 93.675 121.771 112.159 123.142 122.505C123.992 128.916 130.987 141.675 136.878 144.747C143.085 147.997 153.927 152.516 160.693 150.637C168.107 148.581 163.486 145.344 166.368 139.542C165.378 136.279 143.987 137.549 141.752 130.3C140.978 127.799 143.276 115.98 143.631 112.273C144.342 105.012 143.873 97.3312 146.538 90.1712L147.643 89.4476C152.213 91.0091 157.164 90.1078 161.62 90.6283C164.908 91.0218 168.196 92.5325 171.167 92.8245C175.432 93.2434 185.982 89.3588 183.29 95.757L191.06 97.1788C192.748 103.006 189.168 108.846 189.143 114.469C189.143 117.554 191.009 112.971 190.653 112.654C195.668 112.273 192.608 117.059 191.504 119.75C188.876 126.161 185.614 129.602 181.78 134.997L171.903 139.072L169.516 147.552C169.669 148.568 173.261 149.723 174.29 149.926C175.915 150.256 182.897 150.955 184.001 150.46C184.941 150.028 191.072 145.775 191.783 145.001C193.446 143.173 197.407 135.695 198.347 133.207C202.815 121.363 203.056 108.198 201.66 95.757H204.593C204.732 101.546 206.408 107.157 206.052 113.009C205.697 118.862 202.511 131.76 200.086 137.143C196.315 145.521 187.048 157.023 176.702 153.037C176.181 155.207 176.435 159.511 173.972 160.235L140.153 158.749C138.236 156.388 140.128 151.412 138.883 149.355C138.503 148.733 133.78 146.6 132.396 145.572C114.255 132.001 119.067 98.8038 132.257 83.2779C133.056 82.3384 140.166 75.8386 140.724 75.5847C141.917 75.0515 143.124 75.1404 144.38 75.2039ZM153.153 93.5989C151.794 93.637 149.331 92.0374 148.392 93.5227L147.326 100.898C152.391 100.454 152.937 98.5753 153.153 93.5989ZM167.879 95.0334L154.663 93.5608C155.095 94.7922 158.408 95.5666 159.5 95.6935C161.315 95.8967 163.474 95.8332 165.327 95.757C166.216 95.7189 168.056 96.3156 167.879 95.0334ZM188.406 99.4639C184.56 99.3624 180.04 97.255 176.283 97.2042C170.088 97.1281 162.039 101.102 155.755 97.2423L154.663 100.886C159.36 100.048 163.804 102.168 168.221 102.384C172.88 102.612 177.375 101.064 182.199 101.622C184.903 101.939 186.071 103.107 188.432 103.818L188.406 99.4512V99.4639ZM146.577 116.31C147.376 111.676 149.496 107.03 148.049 102.371L146.589 107.881V116.31H146.577ZM152.924 103.196C152.238 103.311 152.137 103.831 151.87 104.339C150.791 106.408 148.405 119.738 148.151 122.658C147.897 125.577 147.846 128.891 148.379 131.785C148.989 132.636 162.521 134.692 164.845 135.149C166.47 135.467 168.602 136.825 169.719 136.825C171.903 136.825 179.926 131.722 180.751 129.551C182.034 126.136 184.661 111.575 184.801 107.843C185.004 102.244 178.86 104.542 175.597 104.58C167.549 104.669 160.77 103.641 152.937 103.209L152.924 103.196ZM173.756 153.049C171.878 153.176 169.085 150.84 167.625 150.98C166.52 151.094 164.883 152.834 163.347 153.278C154.993 155.715 149.738 153.367 142.184 150.104V155.982C151.274 154.23 162.61 159.118 171.192 157.455C173.249 157.061 173.388 154.877 173.756 153.049Z" fill="#2B2B2B"/>
<path id="Vector_7" d="M65.8152 0.303533V6.90491C68.0495 7.55235 67.6179 3.655 69.776 4.01046C71.4898 4.28975 72.0103 7.60313 71.6929 9.11383C73.5972 9.73589 74.0542 6.40981 75.0063 6.1813L76.8344 7.29846C73.6987 12.6557 80.1605 15.8549 83.093 20.8567C93.1474 37.9822 89.1231 59.1954 76.3901 73.6677C74.8667 75.4069 71.566 76.2829 71.6295 79.2408L84.6037 106.002C89.212 112.768 93.3759 104.136 95.3309 99.9463C98.8601 92.3674 100.612 84.2172 105.296 76.8668C107.264 73.7946 116.582 61.2647 117.89 70.4813C119.82 84.0014 113.015 105.202 108.432 118.202C106.084 124.841 99.8757 142.398 94.4169 146.042C87.3712 150.739 81.6077 144.544 77.2406 139.059C76.5424 138.183 72.4927 132.407 73.1656 131.773C77.5707 131.15 78.7132 136.038 81.2268 138.767C83.6008 141.345 86.2033 143.718 89.2882 145.432C90.2022 145.674 94.7343 141.586 95.5214 140.532C102.364 131.366 115.503 88.6097 115.783 77.0192C115.846 74.6071 114.83 72.4871 115.021 70.0877C111.377 73.198 108.445 77.2223 106.096 81.3481C101.691 89.0413 100.269 98.4863 95.8134 105.583C92.5761 110.724 88.5899 113.847 83.0549 109.049L68.7477 80.396C61.5624 82.6303 55.6465 84.6615 48.0168 83.1381C22.7158 78.0855 18.8692 43.898 29.99 24.3478C33.9381 17.4036 40.0063 10.853 47.6741 8.25058C54.3516 5.99087 50.3908 10.2056 49.8449 12.6176C49.5402 13.9506 48.842 17.1624 51.1398 16.4896C51.2287 14.1664 54.6436 2.57593 57.3857 3.27415L60.3182 6.20669C62.5526 4.18819 61.8163 -0.204266 65.8279 0.341618L65.8152 0.303533ZM45.9856 12.7827C38.1656 14.4203 39.3208 21.9992 42.685 27.458L45.9856 12.7827ZM37.899 20.1204C36.0455 17.886 30.1931 30.4794 29.8123 31.4824C14.3117 72.0301 58.3632 101.406 79.8939 63.9307C88.7677 48.4936 88.0567 27.877 74.9936 14.9916C71.7437 19.3841 69.192 18.2796 69.484 12.77C66.9958 13.9125 67.9987 21.6311 65.3582 22.2277L62.9842 21.466L62.8699 14.2426C61.8416 12.8462 60.077 23.383 58.7568 23.8273L55.6338 22.5832C55.3418 20.425 55.5957 18.2415 55.5323 16.0707C55.5069 15.182 56.0781 13.3413 54.8086 13.519C53.2725 17.7464 53.044 27.7246 46.722 23.7892C44.1703 36.1414 37.2134 28.7275 37.899 20.1204Z" fill="#2B2B2B"/>
<path id="Vector_8" d="M56.7855 150.32C54.9701 148.848 35.6611 148.34 30.3419 146.283C26.051 144.62 22.763 139.237 23.22 134.68L26.1145 134.718C26.6223 145.94 39.1776 145.026 47.4547 145.699C47.1247 143.059 48.2291 140.596 48.2545 137.981C48.2672 135.924 47.0612 133.042 47.4166 131.519C47.5055 131.163 50.857 128.866 51.5044 128.79C52.1519 128.713 63.5265 130.846 64.5548 131.163C65.6974 131.519 67.17 133.131 67.2969 134.325C67.5508 136.813 62.7268 148.111 61.8508 151.704C61.4319 153.443 62.0539 154.713 61.8127 155.995C59.3753 168.715 48.8385 170.188 37.5527 169.909C-9.406 168.728 -7.8826 114.292 17.8501 87.7594C20.8715 84.6492 28.5392 77.4257 32.043 82.8846C30.5831 84.7888 29.3263 82.8719 27.1174 83.7859C22.598 85.6902 12.277 98.7406 9.87764 103.323C1.1689 119.992 -1.30661 148.454 15.9331 160.679C24.8704 167.027 49.6636 171.419 56.5951 161.047C58.512 158.166 59.8323 152.758 56.7982 150.307L56.7855 150.32Z" fill="#2B2B2B"/>
<path id="Vector_9" d="M157.037 55.9585C154.397 51.3756 162.559 56.0982 163.854 56.1489C166.736 56.2759 166.888 55.0318 168.615 54.2447C172.22 52.5943 170.354 58.5229 165.238 59.018C163.588 59.183 157.672 57.063 157.024 55.9458L157.037 55.9585Z" fill="#2B2B2B"/>
<path id="Vector_10" d="M108.392 23.7893C106.666 24.1448 99.0616 23.218 99.5821 20.5013C99.9884 18.4574 108.938 20.7552 108.392 23.7893Z" fill="#2B2B2B"/>
<path id="Vector_11" d="M100.864 8.53008C102.324 8.14923 103.073 8.18732 103.987 9.46951C102.527 9.99 98.617 15.1569 97.7665 14.9791C94.7705 14.3317 98.1854 9.22831 100.864 8.53008Z" fill="#2B2B2B"/>
<path id="Vector_12" d="M171.196 39.2137C174.014 38.6171 173.303 45.6247 171.196 46.5387C169.749 46.6022 169.418 39.5946 171.196 39.2137Z" fill="#2B2B2B"/>
<path id="Vector_13" d="M153.918 42.1463H151.734C150.554 33.0821 156.457 33.5899 153.918 42.1463Z" fill="#2B2B2B"/>
<path id="Vector_14" d="M176.688 10.5737C177.031 10.8784 175.139 14.9154 174.733 15.6136C174.289 16.388 173.819 18.4446 172.664 17.9114C170.328 16.8323 172.448 12.4653 172.321 10.6118L176.688 10.5737Z" fill="#F9F9FC"/>
<path id="Vector_15" d="M152.922 103.196C160.754 103.628 167.533 104.656 175.582 104.567C178.845 104.529 184.989 102.244 184.786 107.83C184.659 111.575 182.018 126.123 180.736 129.538C179.924 131.722 171.888 136.825 169.704 136.813C168.587 136.813 166.454 135.454 164.829 135.137C162.506 134.68 148.973 132.623 148.364 131.773C147.831 128.878 147.894 125.578 148.136 122.645C148.377 119.713 150.776 106.396 151.855 104.326C152.122 103.818 152.236 103.298 152.909 103.184L152.922 103.196Z" fill="#F9F9FC"/>
<path id="Vector_16" d="M173.759 153.049C173.391 154.878 173.251 157.061 171.195 157.455C162.613 159.118 151.263 154.217 142.174 155.982V150.104C149.74 153.367 154.996 155.715 163.349 153.278C164.872 152.834 166.523 151.094 167.627 150.98C169.087 150.828 171.88 153.164 173.759 153.049Z" fill="#F9F9FC"/>
<path id="Vector_17" d="M188.403 99.464L188.429 103.831C186.067 103.12 184.9 101.952 182.196 101.635C177.371 101.076 172.877 102.625 168.218 102.397C163.801 102.181 159.345 100.061 154.66 100.899L155.752 97.2551C162.049 101.114 170.085 97.1409 176.28 97.217C180.025 97.2678 184.544 99.3625 188.403 99.4767V99.464Z" fill="#F9F9FC"/>
<path id="Vector_18" d="M153.148 93.5991C152.932 98.5755 152.387 100.454 147.321 100.899L148.388 93.5229C149.327 92.0249 151.79 93.6371 153.148 93.5991Z" fill="#F9F9FC"/>
<path id="Vector_19" d="M146.577 116.31V107.881L148.05 102.371C149.497 107.03 147.377 111.689 146.577 116.31Z" fill="#F9F9FC"/>
<path id="Vector_20" d="M167.876 95.0335C168.041 96.3157 166.213 95.7191 165.324 95.7571C163.47 95.846 161.325 95.9095 159.497 95.6937C158.405 95.5667 155.104 94.7923 154.66 93.5609L167.876 95.0335Z" fill="#F9F9FC"/>
<path id="Vector_21" d="M37.8931 20.1206C37.2075 28.7151 44.1644 36.1417 46.716 23.7895C53.0254 27.7122 53.2666 17.7467 54.8027 13.5193C56.0722 13.3415 55.501 15.195 55.5264 16.071C55.6025 18.2418 55.3359 20.4253 55.6279 22.5835L58.7509 23.8276C60.0711 23.3706 61.8357 12.8337 62.864 14.2429L62.9783 21.4663L65.3522 22.228C67.9928 21.644 66.9899 13.9255 69.4781 12.7703C69.1988 18.2799 71.7505 19.3716 74.9877 14.9919C88.0508 27.89 88.7491 48.4939 79.888 63.9309C58.37 101.394 14.3058 72.0303 29.8064 31.4826C30.1872 30.4797 36.0523 17.8863 37.8931 20.1206ZM68.7418 34.8087C65.3903 34.2628 66.2663 41.4482 67.65 41.3974C70.2906 39.5947 69.567 37.4239 68.7418 34.8087ZM43.4154 40.6992C41.181 41.9433 42.3998 47.948 44.1517 48.0115C46.0432 48.0749 44.4563 40.7246 43.4154 40.6992ZM62.1277 51.7057C61.7088 51.2487 55.539 53.9527 54.0791 54.2955C51.1212 55.0064 48.2141 55.3111 45.2307 54.981C43.7327 55.9585 45.7893 61.1634 46.6907 62.3695C51.1212 68.2853 56.4404 59.7162 59.1952 56.479C59.868 55.6792 63.905 53.6099 62.1277 51.7057Z" fill="#F9F9FC"/>
<path id="Vector_22" d="M45.9759 12.783L42.6753 27.4583C39.3111 21.9995 38.1432 14.4206 45.9759 12.783Z" fill="#F9F9FC"/>
<path id="Vector_23" d="M62.1279 51.7057C63.9052 53.5972 59.8682 55.6792 59.1953 56.479C56.4532 59.7162 51.134 68.2853 46.6908 62.3694C45.7895 61.1634 43.7329 55.9585 45.2309 54.981C48.2142 55.311 51.1213 55.0064 54.0793 54.2955C55.5392 53.9527 61.6962 51.2487 62.1279 51.7057ZM54.7902 56.8344L48.1888 57.5708C48.3665 66.8254 55.6027 57.6215 54.7902 56.8344Z" fill="#2B2B2B"/>
<path id="Vector_24" d="M68.7434 34.8085C69.5686 37.4237 70.2922 39.5945 67.6516 41.3972C66.2679 41.448 65.3919 34.2499 68.7434 34.8085Z" fill="#2B2B2B"/>
<path id="Vector_25" d="M43.413 40.6992C44.454 40.7246 46.0408 48.075 44.1493 48.0115C42.3974 47.948 41.1787 41.9433 43.413 40.6992Z" fill="#2B2B2B"/>
<path id="Vector_26" d="M54.7928 56.8345C55.6053 57.6089 48.3691 66.8127 48.1914 57.5708L54.7928 56.8345Z" fill="#F9F9FC"/>
</g>
<defs>
<clipPath id="clip0_2940_7678">
<rect width="223.393" height="210.787" fill="white" transform="translate(0 0.25293)"/>
</clipPath>
</defs>
</svg>
