<svg width="111" height="209" viewBox="0 0 111 209" fill="none" xmlns="http://www.w3.org/2000/svg">
<g id="DESIGNED_BY_FREEPIK" clip-path="url(#clip0_2940_7719)">
<path id="Vector" d="M95.997 209L92.4648 176.812C86.1361 176.748 79.7798 176.665 73.4512 176.72C72.2829 176.729 71.1975 177.245 70.0293 177.255C66.9937 177.291 55.9186 177.55 54.5204 174.895C53.9592 173.835 53.5177 167.733 53.4257 166.064C53.2969 163.64 53.0394 158.303 53.4257 156.146C53.5453 155.483 53.8857 154.754 54.6583 154.902C55.5506 155.538 55.7898 156.036 55.9278 157.105C56.4613 161.124 54.9067 170.258 56.5073 173.392C56.7464 173.862 56.9764 174.204 57.5007 174.388L91.5909 174.038C92.9063 173.134 90.7354 160.488 90.5698 158.119C90.1283 151.786 89.8431 142.495 90.5422 136.264C90.763 134.319 91.922 133.729 92.5475 135.794L94.5988 173.438C94.9484 174.572 96.5398 174.24 97.5056 174.25C97.4504 173.208 97.6528 172.074 97.478 171.051C97.3124 170.092 95.3899 167.594 96.7789 167.3C99.7869 166.654 100.845 173.678 99.5477 175.54C98.5727 176.738 95.2427 175.807 95.0312 177.964L98.0115 208.982H96.0338L95.997 209Z" fill="#2B2B2B"/>
<path id="Vector_2" d="M20.2189 209C20.5317 201.313 20.4765 193.597 20.6973 185.901C20.7524 183.845 22.0403 176.803 21.1756 175.549C20.2189 174.167 17.7537 174.167 21.7183 172.415L25.1678 142.283C28.3413 140.863 27.725 144.818 27.6422 146.707C27.2927 155.381 24.5607 164.553 24.1835 173.254C29.8591 172.756 35.3139 173.088 40.9711 173.697C41.3574 170.682 41.201 167.687 41.5874 164.645C42.1853 159.999 43.5651 155.446 44.0894 150.772L44.7977 149.989L46.4626 149.952C47.2261 150.459 44.3562 163.52 44.0618 165.631C43.7766 167.668 43.7582 174.784 42.774 175.752C41.4862 177.024 38.4782 175.771 36.8409 175.724C35.0839 175.669 24.7815 175.531 24.1651 175.964L23.7696 176.563L22.7118 209H20.2373H20.2189Z" fill="#2B2B2B"/>
<path id="Vector_3" d="M56.8568 0.0831608C57.7767 0.765264 55.6334 3.89925 55.4218 5.32798C55.201 6.83967 55.4678 8.47118 55.3758 9.99209C55.9829 10.6189 62.5967 6.77514 63.1947 5.66903C63.7558 4.63666 63.6086 1.99121 65.5219 2.55348L67.0765 5.46624C79.1451 3.7702 87.9758 13.504 89.052 24.8785L91.3517 23.9383L92.5199 24.6389C92.2072 25.8372 91.6185 26.6483 91.6461 27.9664C91.7288 31.2663 96.0798 46.9178 97.4596 50.4389C99.9524 56.7807 105.646 60.0713 108.305 66.8739C109.832 70.7914 111.819 80.5621 110.623 84.4519C110.181 85.8806 108.314 86.7287 107.753 88.0283C106.962 89.8626 107.854 90.9042 105.573 92.2869C104.395 92.9966 102.16 93.0335 101.765 93.9829L102.454 104.012C104.662 120.373 81.3252 141.297 67.7388 146.182C62.2656 148.146 59.0093 147.279 53.6557 146.966C47.8145 146.625 40.8972 148.643 41.0259 140.016C36.675 139.85 32.2596 140.237 27.9087 140.006C26.2897 139.923 24.5696 139.131 22.9414 139.029C20.6142 138.882 5.75835 139.168 5.36281 137.278L6.24588 134.457L0 105.542C0.570316 97.6239 4.41535 101.827 9.57578 101.836C11.0384 101.836 15.2789 101.403 16.2448 100.555C16.9347 99.9559 18.9308 92.8676 19.9611 90.8766C22.5735 85.853 28.5434 78.3683 32.3424 74.0084C33.4555 72.7363 41.4951 64.2377 42.1482 63.9612C45.8092 62.3942 44.2731 66.9477 44.9538 69.3258C46.2324 73.7595 49.1667 78.8845 50.9145 83.2352C47.3086 93.31 46.3979 104.141 45.2389 114.723C44.7882 115.229 44.6042 115.414 43.9787 114.962C42.5897 113.939 44.2271 100.214 44.6226 97.7345C45.1009 94.6834 48.0629 85.5488 47.9341 83.7237C47.8513 82.5346 46.3979 81.0783 45.8736 79.8154C44.3007 76.0362 43.5832 72.0266 41.7526 68.57C32.9679 77.382 22.739 86.7287 19.7219 99.3199C20.2738 100.076 34.2097 98.2138 37.7328 100.38C39.7657 101.634 39.9497 106.943 40.658 109.358C41.863 113.478 43.574 117.451 44.4846 121.663C46.6003 120.779 48.5228 121.921 50.6753 122.152C54.0144 122.502 57.4731 122.64 60.8214 122.659C61.3641 116.17 58.6321 110.187 57.5007 103.901C56.4245 97.9188 56.3417 91.743 54.9803 85.7977C55.3666 82.8849 61.8241 79.2716 64.0593 77.0225C66.3498 74.7181 68.5391 71.3168 70.7283 68.8188C71.9794 67.3809 74.2238 66.6712 74.6838 64.1087C66.543 67.9893 59.23 71.6671 50.3994 66.8463C35.148 58.5228 38.6527 33.6629 46.2508 20.9703C47.6858 18.5737 52.4323 13.8174 53.021 12.3702C54.1064 9.69712 52.3679 1.66859 54.8791 0.332036C55.3022 0.110814 56.5808 -0.101191 56.8568 0.101596V0.0831608ZM68.1251 7.6416C62.5967 8.65553 64.0317 18.1036 71.2527 15.7347C73.35 15.0433 74.1778 10.8032 73.5983 8.85832C73.0464 7.00558 69.6705 7.35585 68.1251 7.6416ZM62.3116 9.50355C62.0356 9.19016 56.1669 12.2135 56.3785 13.209C57.0776 16.5089 63.5166 12.6283 62.3116 9.50355ZM81.454 12.656C81.0492 12.2227 77.6733 9.50355 77.4158 9.51277C76.1555 12.9694 73.9387 17.5137 76.2475 21.0993C77.3974 22.8783 80.9572 23.6802 82.6222 22.6571C82.8706 22.5004 84.7747 18.8779 84.8575 18.4723C85.0506 17.4583 82.2726 13.5224 81.454 12.656ZM64.4641 16.7762C63.8662 16.2785 63.5166 14.9235 62.56 14.5548C59.9199 18.4631 55.247 14.8405 54.2076 15.0433C51.8803 15.495 45.7172 26.3441 44.733 28.8697C40.0969 40.7605 40.1337 61.795 54.8883 66.3117C72.5313 71.7132 87.0651 47.1759 87.5527 32.0775C87.6079 30.2708 87.2767 23.0811 85.8233 22.4082C81.5184 28.6117 73.8743 24.8693 72.7244 18.1497C71.593 17.357 68.1435 19.8549 64.4549 16.7762H64.4641ZM104.414 87.9177C101.995 87.7426 100.072 85.6041 103.144 84.4058C107.422 82.7282 108.296 85.9636 107.882 78.737C107.118 65.6664 100.909 61.9149 94.9208 51.5266L90.0639 33.8196C89.1532 45.2402 83.6616 56.0248 75.1989 63.5833C75.9348 63.7123 76.6339 63.1961 77.3422 63.2606C84.2136 63.8137 96.1534 77.5571 99.051 83.5947C99.6489 84.8483 100.845 89.7705 101.415 90.176C102.5 90.9411 104.984 89.4571 104.405 87.9085L104.414 87.9177ZM97.478 86.9314C96.8525 86.9038 96.4202 86.6273 96.0614 86.1295C94.4516 83.9357 93.265 80.4146 91.4529 77.8337C88.031 72.976 82.797 67.98 76.9006 66.579L76.2015 66.8002C72.2553 71.8699 67.7664 76.5801 63.0843 80.9769C59.4324 84.4058 57.5743 83.1707 57.933 89.0884C58.2458 94.2041 59.5428 101.219 60.4811 106.381C61.6953 113.128 65.7703 120.511 61.5481 127.074L54.4008 134.55C56.7188 133.72 59.4692 132.789 61.5941 131.591C63.9765 130.245 71.7034 124.106 73.4419 122.124C76.6891 118.41 76.827 112.667 76.7075 107.994C76.6799 106.703 75.2909 102.316 76.9558 101.818C78.354 101.403 79.0439 102.896 79.1911 104.021C79.697 107.901 79.4303 117.009 77.7745 120.511C76.2567 123.71 67.932 130.77 64.7676 132.789C63.7006 133.471 59.6348 134.808 59.8648 135.794C59.9935 136.375 66.313 142.283 67.1501 142.421C69.1922 142.744 77.7193 136.983 79.8258 135.471C82.8154 133.314 88.031 129.342 90.3215 126.632C92.4279 124.143 99.4189 112.372 99.9524 109.487C100.716 105.413 99.0694 99.0249 98.9958 94.7203L94.0469 92.1117C94.516 90.0193 95.7486 88.775 97.4964 87.6689V86.9407L97.478 86.9314ZM36.445 102.417C25.2503 99.7992 14.1015 104.961 2.88837 103.293C1.69255 104.473 6.85299 127.729 7.95682 130.973C16.8427 133.517 26.1977 132.365 35.3504 132.549C38.3123 132.614 41.3387 133.757 44.4938 132.568L36.445 102.417ZM58.3562 124.631H50.1878C49.2587 124.631 45.1745 122.954 44.9906 123.147C45.8828 126.116 45.9196 129.369 46.4899 132.31C46.6003 132.89 46.6923 133.204 47.2166 133.554C50.1878 131.176 54.3272 129.084 57.1144 126.604C57.7215 126.06 58.5218 125.59 58.3654 124.631H58.3562ZM51.9171 133.075C51.3376 132.531 46.9499 136.024 47.465 137.536C48.1457 138.264 52.2667 133.407 51.9171 133.075ZM44.9906 135.057C36.6198 134.651 27.7799 135.582 19.4643 135.075C16.6771 134.909 12.8413 133.674 10.5048 133.582C6.7978 133.434 9.80575 136.568 13.6048 136.974C18.756 137.527 25.609 137.85 30.8522 138.052C33.6394 138.154 42.5713 138.532 44.6778 137.969C46.2508 137.545 43.8959 136.163 44.9906 135.057ZM44.0431 140.559C43.8959 141.426 43.7671 142.624 44.4846 143.251C45.6621 144.274 56.0749 145.104 58.0986 144.975C60.2419 144.836 65.5955 144.79 62.9831 142.08C61.7137 140.762 60.1039 138.384 59.1105 137.527C56.0933 134.955 51.9447 138.937 48.578 139.896C47.281 140.265 45.4321 139.997 44.0523 140.559H44.0431Z" fill="#2B2B2B"/>
<path id="Vector_4" d="M97.4784 86.9313V87.6595C95.7399 88.7564 94.5073 90.01 94.029 92.1023L98.9778 94.7109C99.0514 99.0063 100.698 105.403 99.9345 109.478C99.3918 112.363 92.4008 124.134 90.3035 126.622C88.013 129.332 82.7974 133.305 79.8079 135.462C77.7014 136.983 69.1742 142.735 67.1321 142.412C66.3043 142.283 59.9848 136.365 59.8468 135.785C59.626 134.798 63.6918 133.453 64.7497 132.78C67.914 130.761 76.2388 123.7 77.7566 120.502C79.4123 117.008 79.6883 107.892 79.1732 104.011C79.026 102.887 78.3361 101.384 76.9379 101.808C75.2729 102.306 76.6619 106.694 76.6895 107.984C76.7999 112.658 76.6711 118.409 73.424 122.115C71.6855 124.097 63.9586 130.236 61.5762 131.581C59.4513 132.789 56.7009 133.72 54.3828 134.54L61.5302 127.065C65.7431 120.502 61.6773 113.109 60.4631 106.371C59.5341 101.2 58.237 94.1947 57.9151 89.079C57.5471 83.1521 59.4145 84.3964 63.0663 80.9675C67.7484 76.5707 72.2374 71.8513 76.1836 66.7908L76.8827 66.5696C82.779 67.9707 88.013 72.9574 91.4349 77.8243C93.2563 80.4052 94.4429 83.9263 96.0435 86.1201C96.4114 86.6179 96.8345 86.8944 97.46 86.9221L97.4784 86.9313Z" fill="#F9F9FC"/>
<path id="Vector_5" d="M64.464 16.776C68.1527 19.8639 71.6021 17.3659 72.7336 18.1494C73.8834 24.8691 81.5275 28.6022 85.8324 22.408C87.2858 23.0809 87.617 30.2706 87.5618 32.0772C87.0743 47.1757 72.5404 71.7129 54.8974 66.3114C40.1428 61.7948 40.106 40.7602 44.7421 28.8695C45.7264 26.3531 51.8895 15.4948 54.2167 15.0431C55.2562 14.8403 59.9291 18.4628 62.5691 14.5546C63.5257 14.9233 63.8753 16.2783 64.4732 16.776H64.464ZM48.9459 32.3261C49.0655 33.5705 48.1456 38.5756 50.6752 37.7829C51.9538 36.6953 51.3835 34.6397 51.3559 33.1465L48.9551 32.3353L48.9459 32.3261ZM66.7729 33.8194H64.7952C64.9699 35.7366 63.8385 40.1795 66.7729 39.0273V33.8194ZM66.5981 46.2908C64.326 48.798 62.9738 50.6784 59.2208 50.0792C57.9698 49.8764 55.3665 48.2357 54.3823 48.9362L53.9132 50.4203C58.4481 53.7478 66.7177 53.0934 68.2538 46.9821L66.5981 46.2908Z" fill="#F9F9FC"/>
<path id="Vector_6" d="M36.4455 102.417L44.4943 132.568C41.3299 133.757 38.3128 132.614 35.3508 132.549C26.1982 132.356 16.8431 133.517 7.95726 130.973C6.84423 127.728 1.69299 104.472 2.88881 103.293C14.102 104.97 25.2507 99.8083 36.4455 102.417Z" fill="#F9F9FC"/>
<path id="Vector_7" d="M104.414 87.9175C104.984 89.4661 102.51 90.9501 101.424 90.1851C100.845 89.7795 99.658 84.8573 99.0601 83.6037C96.1533 77.5661 84.2135 63.8227 77.3513 63.2696C76.6338 63.2143 75.9439 63.7305 75.208 63.5923C83.6708 56.0246 89.1623 45.2492 90.073 33.8286L94.9299 51.5356C100.918 61.9147 107.127 65.6662 107.891 78.746C108.314 85.9726 107.431 82.7372 103.153 84.4148C100.081 85.6131 102.004 87.7516 104.423 87.9267L104.414 87.9175Z" fill="#F9F9FC"/>
<path id="Vector_8" d="M44.0432 140.559C45.4322 139.997 47.2719 140.264 48.5689 139.896C51.9356 138.937 56.0842 134.955 59.1013 137.527C60.104 138.384 61.7046 140.762 62.974 142.08C65.5864 144.79 60.242 144.845 58.0895 144.975C56.0658 145.104 45.6529 144.274 44.4755 143.251C43.7672 142.633 43.896 141.435 44.034 140.559H44.0432Z" fill="#F9F9FC"/>
<path id="Vector_9" d="M44.9902 135.056C43.8956 136.163 46.2504 137.545 44.6775 137.969C42.571 138.531 33.6391 138.154 30.8519 138.052C25.6087 137.859 18.7557 137.527 13.6045 136.974C9.80543 136.568 6.79748 133.434 10.5045 133.582C12.841 133.674 16.6768 134.9 19.464 135.075C27.7888 135.582 36.6195 134.651 44.9902 135.056Z" fill="#F9F9FC"/>
<path id="Vector_10" d="M81.4537 12.6557C82.2724 13.5314 85.0503 17.4581 84.8572 18.4721C84.7836 18.8776 82.8703 22.5002 82.6219 22.6568C80.9569 23.6708 77.3971 22.8689 76.2472 21.0991C73.9384 17.5226 76.1553 12.9691 77.4155 9.51254C77.673 9.49411 81.0489 12.2225 81.4537 12.6557Z" fill="#F9F9FC"/>
<path id="Vector_11" d="M58.3563 124.631C58.5126 125.59 57.7216 126.06 57.1053 126.604C54.3273 129.083 50.1787 131.167 47.2075 133.554C46.6832 133.204 46.5912 132.89 46.4808 132.31C45.9105 129.369 45.8737 126.115 44.9814 123.147C45.1654 122.954 49.2496 124.631 50.1787 124.631H58.3471H58.3563Z" fill="#F9F9FC"/>
<path id="Vector_12" d="M68.1253 7.64144C69.6707 7.35569 73.0466 7.00542 73.5985 8.85816C74.178 10.8031 73.3502 15.0432 71.2529 15.7345C64.0319 18.1034 62.5969 8.65537 68.1253 7.64144Z" fill="#F9F9FC"/>
<path id="Vector_13" d="M62.3118 9.50338C63.5168 12.6281 57.0777 16.5088 56.3786 13.2089C56.1671 12.2134 62.0358 9.18998 62.3118 9.50338Z" fill="#F9F9FC"/>
<path id="Vector_14" d="M51.9169 133.075C52.2665 133.397 48.1455 138.264 47.4648 137.536C46.9497 136.033 51.3374 132.54 51.9169 133.075Z" fill="#F9F9FC"/>
<path id="Vector_15" d="M66.598 46.2908L68.2538 46.9821C66.7176 53.0934 58.448 53.7478 53.9131 50.4203L54.3822 48.9362C55.3573 48.2357 57.9605 49.8764 59.2207 50.0792C62.9737 50.6784 64.3259 48.798 66.598 46.2908Z" fill="#2B2B2B"/>
<path id="Vector_16" d="M48.9455 32.3261L51.3464 33.1373C51.3832 34.6305 51.9443 36.686 50.6657 37.7737C48.1361 38.5664 49.0559 33.5613 48.9363 32.3169L48.9455 32.3261Z" fill="#2B2B2B"/>
<path id="Vector_17" d="M66.7729 33.8193V39.0273C63.8386 40.1795 64.97 35.7366 64.7952 33.8193H66.7729Z" fill="#2B2B2B"/>
</g>
<defs>
<clipPath id="clip0_2940_7719">
<rect width="111" height="209" fill="white"/>
</clipPath>
</defs>
</svg>
