<svg width="307" height="193" viewBox="0 0 307 193" fill="none" xmlns="http://www.w3.org/2000/svg">
<g clip-path="url(#clip0_2940_8088)">
<path d="M0.00136338 118.74L35.0681 116.832C35.3673 112.04 34.7356 106.971 35.1789 102.201C35.3452 100.46 35.5779 96.9328 37.8721 97.4319C39.59 97.809 38.2378 100.87 38.2046 102.091C38.0716 107.204 38.3376 112.351 38.2711 117.453L41.995 118.118L41.3743 121.235C44.134 121.391 47.4367 120.459 49.5204 122.81C50.2407 125.905 41.2192 123.309 39.8116 123.742C38.0051 128.223 49.4649 125.273 50.1521 128.456C50.2297 129.954 48.1571 129.876 47.7471 131.052C44.0675 141.766 64.1056 144.684 71.1212 145.094C83.645 145.826 99.8816 144.506 98.7512 128.101C98.2746 127.38 95.9139 126.937 94.9719 126.87C84.8752 126.204 73.7922 131.063 64.5489 124.064C63.0638 122.943 59.1072 117.919 59.8608 116.177C61.9998 111.308 64.2497 119.915 65.5575 121.169C66.3666 121.945 70.2345 123.997 71.2874 124.208C73.0053 124.563 79.8546 124.995 81.8052 124.973C82.9135 124.973 90.4832 124.241 90.8933 124.042C93.0323 122.988 92.4893 115.723 92.8439 113.449C93.1542 111.452 94.052 105.507 94.994 104.309C96.2686 102.689 108.449 97.2655 111.364 95.6017C113.891 94.1487 115.919 92.0079 118.268 90.5882C120.197 89.4235 130.726 83.334 131.38 87.6266C131.18 96.7997 128.553 105.684 127.323 114.713C126.592 120.126 126.015 139.881 123.223 143.231C122.768 143.785 114.711 147.967 113.436 148.488C107.928 150.729 96.9668 153.69 91.0485 154.944C90.1618 155.132 89.2752 155.154 88.3775 155.099V147.568C79.8989 148.089 70.9438 148.388 62.5318 146.769C57.9324 145.882 50.5511 143.929 47.3148 140.679L46.007 146.969C46.8826 148.111 52.3687 147.19 52.6458 150.396L50.141 167.001L171.755 166.701C173.052 165.448 172.032 166.013 171.6 165.592C166.967 161.222 162.8 157.229 162.512 150.207C161.404 123.52 177.685 93.4943 197.446 76.335C200.394 73.7728 203.785 71.8095 206.8 69.3471C205.78 66.0306 203.973 63.6902 202.932 60.1962C198.277 44.6231 203.774 29.0056 214.281 17.2593C213.438 14.1091 213.028 1.18702 216.664 0.222023C220.764 -0.876081 217.273 3.08375 217.04 3.74926C216.231 5.96765 215.921 11.3029 216.253 13.6322C216.575 15.895 220.266 12.9667 220.676 12.2457C222.26 9.49489 222.36 -4.10384 229.309 2.45151L228.157 8.28587C239.661 4.90283 251.287 8.24151 257.493 18.7678C259.444 22.0732 259.311 25.3231 263.223 26.8427C261.173 31.0577 262.392 35.5277 261.993 39.9645C261.14 49.7032 256.507 59.1647 250.411 66.6406L246.333 70.3897C250.611 71.3103 253.182 75.847 256.396 78.1985C259.156 80.2061 262.68 81.0824 265.562 82.8238C271.946 86.6949 279.128 96.9328 282.386 103.632C287.141 113.404 291.053 124.274 292.715 135.011L290.82 135.355C289.058 134.557 287.828 124.374 286.941 121.657C283.616 111.497 274.495 92.019 265.728 85.7964C262.88 83.7777 258.89 82.7683 255.787 80.6941C251.852 78.0654 249.137 73.8504 244.77 71.8317C233.554 80.2727 220.144 80.8494 209.049 71.865C207.653 71.8428 202.267 76.1464 200.915 77.3111C183.592 92.0856 167.898 117.32 165.56 140.413C164.341 152.448 168.164 165.792 182.417 164.827L183.326 163.828L182.151 112.983L262.957 113.049L264.431 114.081L259.987 164.96C259.876 165.115 258.668 165.747 258.568 165.747H248.228V166.379H273.298C272.722 158.038 270.782 149.642 271.691 141.245L291.219 136.953L295.863 137.818L297.115 143.153C302.225 142.543 307.677 145.76 306.381 151.483C305.738 154.345 298.778 158.493 295.863 156.951L295.231 166.357L319.913 166.313L320.933 165.414V141.578C320.933 141.312 319.37 140.469 319.237 139.714L319.747 138.184L328.458 136.853L327.826 124.951L321.542 124.008L321.963 122.444C323.593 122.444 328.491 121.79 329.001 120.137C329.788 117.564 324.513 109.999 322.019 110.609C318.428 111.497 311.734 123.476 312.864 127.036L313.374 127.802L315.258 128.057C315.602 125.883 317.242 124.186 319.049 123.065C318.594 124.818 318.749 125.528 319.603 127.047C317.176 129.099 316.245 134.645 312.765 131.551C312.188 131.041 310.16 127.646 309.938 126.848C308.575 121.845 315.58 109.001 321.254 108.602C326.53 108.224 327.76 113.393 327.826 104.253C321.875 103.688 316.777 107.392 311.08 103.776C308.985 102.457 312.299 101.392 313.474 101.414C315.014 101.436 316.91 102.945 318.007 102.856C318.916 102.778 320.622 101.536 322.019 101.259C324.612 100.748 327.261 101.425 329.699 99.5505C328.248 98.652 326.552 92.9729 325.975 92.618C325.178 92.1189 324.058 92.5404 323.26 92.3074C322.717 92.1521 322.85 91.1317 322.396 91.0651C322.218 91.0429 319.004 91.2204 318.827 91.2759C317.951 91.531 317.53 92.5293 316.71 92.8288C315.258 93.3723 312.476 93.6385 311.523 94.5369C310.26 95.7348 310.326 99.1512 309.706 100.882C308.653 103.854 307.788 99.5948 307.722 98.3304C307.533 94.2485 308.498 92.5958 312.332 90.9653C317.22 88.88 323.305 88.159 327.782 91.4423C328.591 92.0301 330.121 95.1359 330.653 93.6163C331.938 89.967 331.905 83.3451 333.024 79.0525C334.532 73.2293 337.059 69.092 342.855 66.9512C341.27 64.2559 337.956 56.9241 338.743 54.0513C339.364 51.7885 345.748 48.1614 347.876 50.9455C346.49 45.1555 347.898 39.787 348.928 34.1079C349.206 32.5551 350.081 31.3128 350.358 29.893C350.768 27.8188 349.704 24.3581 351.333 22.6721C352.231 21.7404 353.195 22.8052 354.137 22.417C354.991 22.0621 359.214 16.9487 361.109 15.5622C365.93 12.0239 371.915 9.69455 377.955 10.1493C378.033 9.10668 377.711 7.57599 378.986 7.09903C381.812 6.0453 381.014 8.36352 381.834 9.75001C382.798 11.3805 385.602 11.4582 387.375 11.4249C387.043 10.2048 388.196 -3.42723 390.844 0.743344C392.119 2.75099 389.781 10.1937 389.947 12.8779C409.863 24.4801 412.955 55.7594 396.164 71.3436C384.738 81.9475 367.526 81.16 356.964 69.7686C354.326 66.929 352.918 63.2243 350.391 60.3515C349.715 64.3113 359.003 75.9468 358.46 78.1097C358.061 79.6737 351.588 82.9347 349.948 81.515C349.472 81.1045 347.332 75.7028 347.31 78.1652C348.873 84.1548 349.992 90.8987 351.965 96.7331C356.443 109.977 368.025 127.07 362.151 141.456C358.781 149.73 350.957 147.457 346.003 141.911C345.526 149.742 345.393 158.427 342.866 165.747H362.926L363.203 163.218L364.511 162.586L393.006 163.862C393.094 157.484 397.982 152.038 400.398 146.469C402.36 141.966 404.266 135.866 405.729 131.107C406.693 127.946 405.596 124.33 409.619 124.341C418.685 124.352 410.439 136.564 408.799 140.447C408.555 141.023 407.436 142.044 408.378 142.532C416.757 138.117 424.349 129.21 423.384 119.305L426.288 118.972C428.471 127.436 420.857 138.106 414.163 142.687C412.224 144.018 407.203 146.004 406.161 147.39C404.499 149.608 403.457 152.57 406.46 153.868C413.842 157.062 427.352 151.039 432.14 144.994C441.815 132.771 442.325 118.252 440.652 103.333C439.521 93.2613 438.657 90.6325 431.264 83.8664C422.287 75.6584 413.033 70.7336 400.598 70.3343L400.542 67.8829C407.513 67.4947 414.684 69.0032 420.791 72.3974C426.476 75.5586 439.754 86.1736 441.738 92.2076C444.409 100.349 445.384 119.86 443.5 128.123C441.826 135.466 434.545 150.318 427.507 153.524C424.736 154.777 414.285 158.26 411.614 158.16C408.877 158.061 405.607 156.652 402.825 156.397L398.048 163.551C398.636 164.461 399.257 164.416 400.199 164.516C404.543 165.015 410.539 162.952 415.26 163.873C416.712 164.161 416.934 165.503 418.995 165.781C422.886 166.302 428.05 165.403 432.096 165.647L432.871 165.148C434.09 162.065 429.491 155.243 431.22 152.936C431.641 152.37 432.317 152.37 432.805 152.581C434.323 153.247 436.052 163.584 436.274 165.736H448.498C449.673 165.736 452.588 164.449 454.45 165.104V176.396H435.642C438.568 181.675 440.086 187.609 441.915 193.333H439.41C437.748 188.985 436.396 184.504 434.722 180.156C434.19 178.769 432.639 178.137 433.769 176.396H338.81C338.167 176.396 337.834 177.86 337.845 178.558C337.868 183.084 340.605 188.719 341.004 193.333H337.868L334.642 177.116C333.401 176.429 332.06 176.451 330.686 176.362C316.644 175.53 295.697 175.364 281.743 176.362C280.69 176.44 279.671 176.562 278.684 176.95L277.066 193.333H273.93L275.237 178.581C275.381 177.926 274.75 176.396 274.24 176.396H182.096C181.464 176.396 180.688 177.205 180.411 177.893C178.782 182.086 178.76 188.83 177.385 193.333H174.249C174.227 189.273 177.596 181.354 177.352 177.904C177.308 177.327 176.831 176.396 176.443 176.396H128.487L134.128 193.333H130.371L124.419 176.396H47.0156C46.3395 177.871 48.9108 179.102 48.9219 179.302C49.0216 180.378 48.1461 181.587 48.3788 183.439C48.7556 186.423 51.9919 190.005 52.0251 193.333H49.5204C48.6448 190.116 46.8937 187.177 46.0403 183.949C45.608 182.308 45.7854 177.05 44.1118 176.473L0.00136338 175.763V159.458C2.47288 159.159 0.101111 160.7 1.18725 162.298C3.40385 165.537 9.88743 164.394 13.5005 164.505C23.0208 164.782 34.3809 164.095 44.134 162.542C45.5305 162.32 46.8383 161.643 48.1793 161.266L47.7027 154.733C42.0947 148.932 34.1482 149.675 26.6006 150.019C22.1896 150.219 7.97006 151.172 4.63407 152.503C2.87187 153.202 1.91873 155.188 -0.0208027 155.687V146.281C4.95548 145.638 9.66577 144.728 14.7307 145.005C21.7795 145.394 28.0747 146.092 35.4117 146.259C37.5839 146.314 41.5627 148.189 42.8927 145.638C45.0982 141.411 44.2005 137.075 38.8363 136.853L39.457 133.736C36.2207 133.669 32.9623 133.802 29.715 133.758C23.1206 133.669 15.7614 133.78 9.06728 134.368C4.93331 134.723 4.11317 137.23 -0.0318857 137.496V131.85C1.83006 132.516 4.7449 131.218 5.9197 131.218H19.707L30.6681 129.343L-0.0429688 130.597V128.09L34.7467 126.837L36.3426 125.273C36.0434 123.631 35.0237 123.243 33.5275 123.043C30.4132 122.633 6.30761 122.744 4.47891 123.498C3.27086 123.997 3.68093 126.404 -0.0318857 123.698V118.684L0.00136338 118.74ZM235.05 10.227C230.673 10.4377 223.967 11.3916 224.677 17.1151C231.382 22.2617 234.485 16.8378 235.05 10.227ZM253.127 18.2797L253.215 17.4478C249.613 13.3216 244.46 10.1493 238.807 10.2159C239.971 14.3199 236.569 16.6936 236.258 19.8991C236.026 22.3505 237.223 30.9689 240.381 30.9578C244.77 30.2036 243.662 16.4828 246.632 17.1262C248.948 17.6253 244.859 31.2795 249.137 30.2923C252.052 29.6157 250.156 19.1227 253.116 18.2908L253.127 18.2797ZM375.461 21.5075C375.295 19.877 378.487 13.3105 376.403 12.7337C373.222 11.8464 373.477 20.5203 375.461 21.5075ZM386.733 14.6305L382.543 13.4658C380.349 13.2773 381.779 18.6458 382.311 19.999C382.776 21.1858 383.652 21.9401 384.549 22.7609L386.722 14.6416L386.733 14.6305ZM370.452 13.9871L363.658 17.5366L364.19 28.4178C365.719 28.8614 365.863 27.0091 366.351 25.8888C368.013 22.0843 368.734 17.7917 370.452 13.9871ZM360.422 27.1533C359.89 31.4681 357.052 38.0567 351.965 34.6736C349.161 41.1513 349.959 50.7126 352.409 57.4343C360.821 80.5167 389.526 83.2342 400.642 60.8285C405.441 51.1674 405.474 40.264 401.462 30.3034C399.223 24.7574 394.746 19.0673 389.26 16.4939C388.739 20.6756 387.231 28.5176 381.69 23.7481C379.983 22.2728 380.36 20.1099 378.598 19.0007C378.21 20.8198 377.312 24.469 375.118 24.6798C374.165 24.7796 373.533 24.4468 372.912 23.737C371.837 22.5168 372.369 20.243 371.072 19.6329C369.964 22.7276 367.991 33.6754 362.904 30.614C361.397 29.7044 362.527 26.6652 360.41 27.1533H360.422ZM233.798 20.2541C229.442 21.9401 225.951 22.2506 222.748 18.4128C221.751 18.2354 220.509 20.5536 218.947 20.7754C217.728 20.9529 216.065 19.8104 215.112 20.365C214.458 20.7421 209.593 28.2403 208.905 29.5381C201.979 42.7486 201.203 65.3651 216.32 73.196C237.455 84.1437 259.222 57.512 259.499 37.8237C253.415 39.9756 252.927 33.3315 251.387 32.4663C250.7 32.0781 246.255 33.9748 245.391 30.2812C243.928 30.2812 243.717 32.9211 241.49 33.3315C235.848 34.3852 232.945 24.6909 233.798 20.2541ZM257.582 35.2837C257.737 35.1839 258.812 32.2334 258.868 31.8008C259.222 28.7173 256.939 22.4392 254.501 20.2541C253.282 22.5168 253.359 38.0678 257.593 35.2837H257.582ZM359.158 21.5075C356.742 22.1397 351.056 32.6993 354.47 33.4202C356.598 33.875 359.324 23.4486 359.158 21.5075ZM351.101 78.5201L355.379 77.0338C352.475 72.8521 349.893 68.9367 348.341 64.034C346.922 59.5529 346.745 47.385 341.037 56.2475C343.254 57.9113 342.711 60.1851 343.642 62.4701C345.814 67.8164 348.995 73.1183 351.101 78.5312V78.5201ZM330.963 121.568C330.32 125.972 331.439 131.739 330.963 136.309C333.423 136.232 335.773 135.477 338.178 135.056C340.04 134.734 342.002 136.021 342.556 133.802C346.557 135.2 349.35 143.142 353.251 143.796C363.58 145.538 360.942 128.534 359.335 122.655C355.501 108.657 348.596 96.8995 345.049 81.7479C344.418 79.0525 344.44 69.0254 340.029 71.6542C335.252 74.4937 333.623 90.1667 333.468 95.5352C341.447 94.7587 349.527 96.3782 348.507 106.195C346.889 105.163 347.299 101.924 345.393 100.848C344.894 100.571 344.384 100.46 343.819 100.515L343.465 101.747L342.556 101.802L341.869 100.504L337.857 101.791L336.294 98.6631C333.257 102.312 332.625 109.001 337.646 111.119L340.971 108.701C341.048 110.032 342.312 111.619 343.786 111.208L345.326 107.725L348.496 107.459C348.884 110.52 346.956 111.951 345.349 113.992C345.404 114.48 346.712 117.83 346.967 118.118C347.621 118.873 348.84 118.396 349.35 119.505C350.668 122.367 349.771 128.268 346.612 129.721C341.902 131.884 335.828 122.544 332.503 120.015C331.628 119.649 331.018 121.135 330.952 121.568H330.963ZM90.8933 151.993C101.334 149.498 112.095 147.046 121.261 141.301C124.176 126.692 124.508 111.596 127.678 96.966C123.644 88.281 118.745 94.2707 113.636 97.2877C110.499 99.129 106.764 101.791 104.005 103.333C102.663 104.087 97.7648 104.919 97.0998 105.984L94.0963 123.398L95.2711 124.396L95.5814 123.143C99.128 125.661 102.209 124.629 102.098 130.286C102.032 133.88 98.2968 141.5 95.9361 144.184C94.8499 145.416 92.4338 145.349 90.9487 145.782L90.8933 151.993ZM336.427 114.547C336.017 114.192 335.418 114.136 335.03 113.737C331.639 113.981 337.302 121.635 338.222 122.466C339.574 123.698 340.339 123.099 341.303 123.731C343.243 124.995 344.174 128.245 347.255 127.524C347.865 121.158 345.559 116.765 340.051 113.737L339.109 116.854C337.402 117.22 337.203 115.234 336.427 114.536V114.547ZM189.3 164.527C199.296 165.337 209.149 163.229 219.046 162.63C224.333 162.309 230.141 163.118 235.361 162.642C240.614 162.165 240.547 161.643 246.078 161.976C250.289 162.231 255.077 162.641 257.538 158.493L261.095 117.486L257.948 116.222C241.889 117.786 223.469 113.815 207.742 115.556C205.337 115.822 202.943 117.12 200.183 117.397C194.176 118.019 190.585 116.355 184.911 115.601L186.784 160.767C190.164 160.19 189.976 161.233 191.184 163.895L189.3 164.527ZM34.4807 119.993H13.168V120.625H34.4807V119.993ZM323.437 140.702V165.17L340.927 163.218L343.42 138.261C342.445 137.152 333.856 138.483 332.06 138.971C331.185 139.215 330.686 140.358 330.054 140.447C328.591 140.657 325.532 139.615 323.437 140.691V140.702ZM293.347 140.069C288.637 140.48 284.281 141.977 279.715 143.042C278.252 143.386 276.168 142.765 275.115 144.085C273.298 146.37 276.057 157.34 275.891 160.678C281.732 162.486 286.719 163.695 292.66 161.333L293.347 140.069ZM433.758 168.309C405.574 168.798 377.201 167.222 349.139 169.241C366.761 169.596 384.494 169.84 402.138 169.585C403.623 169.563 404.986 168.931 406.472 168.908C414.817 168.764 423.24 169.274 431.575 168.931C432.339 168.897 433.902 169.408 433.758 168.309ZM109.69 169.552H87.7568V170.184H109.69V169.552ZM61.4346 170.184H4.07992C3.40385 170.184 1.55299 171.16 0.622013 171.127C0.622013 172.258 8.12523 170.816 9.06728 170.783C25.7472 170.206 42.5713 171.504 59.2402 170.805C60.016 170.772 61.5676 171.282 61.4235 170.173L61.4346 170.184Z" fill="#2B2B2B"/>
<path d="M273.914 193.399H177.381C178.744 188.896 178.766 182.152 180.407 177.959C180.673 177.26 181.459 176.462 182.091 176.462H274.235C274.745 176.462 275.377 178.003 275.233 178.647L273.925 193.399H273.914Z" fill="#F9F9FC"/>
<path d="M130.384 193.399H52.0265C51.9932 190.072 48.7681 186.489 48.3802 183.505C48.1474 181.664 49.023 180.444 48.9232 179.368C48.9011 179.157 46.3409 177.937 47.017 176.462H124.432L130.384 193.399Z" fill="#F9F9FC"/>
<path d="M277.05 193.399L278.668 177.016C279.654 176.639 280.663 176.506 281.727 176.429C295.68 175.43 316.627 175.597 330.67 176.429C332.044 176.506 333.385 176.495 334.626 177.183L337.851 193.399H277.05Z" fill="#F9F9FC"/>
<path d="M49.519 193.399H0V175.83L44.1105 176.54C45.784 177.116 45.6067 182.374 46.0389 184.016C46.8923 187.243 48.6434 190.183 49.519 193.399Z" fill="#F9F9FC"/>
<path d="M174.256 193.399H134.135L128.494 176.462H176.45C176.838 176.462 177.315 177.393 177.359 177.97C177.603 181.42 174.234 189.339 174.256 193.399Z" fill="#F9F9FC"/>
<path d="M0 155.753C1.92845 155.254 2.88159 153.269 4.65487 152.57C7.99087 151.239 22.2104 150.285 26.6214 150.085C34.169 149.73 42.1044 148.987 47.7235 154.799L48.2001 161.332C46.848 161.71 45.5513 162.386 44.1548 162.608C34.4017 164.161 23.0305 164.837 13.5213 164.571C9.89715 164.471 3.41357 165.603 1.20805 162.364C0.121913 160.767 2.50477 159.225 0.0221661 159.524V155.764L0 155.753Z" fill="#F9F9FC"/>
<path d="M0 137.562C4.14505 137.307 4.9652 134.8 9.09917 134.434C15.7933 133.858 23.1525 133.736 29.7469 133.824C32.9942 133.869 36.2526 133.725 39.4888 133.802L38.8682 136.919C44.2213 137.141 45.1301 141.478 42.9246 145.704C41.5946 148.255 37.6158 146.369 35.4435 146.325C28.1066 146.159 21.8003 145.46 14.7626 145.072C9.68657 144.794 4.97628 145.704 0.011083 146.347V137.562H0Z" fill="#F9F9FC"/>
<path d="M0.00229397 128.156V123.764C3.72619 126.47 3.30504 124.064 4.51309 123.564C6.34179 122.81 30.4474 122.688 33.5617 123.11C35.0579 123.309 36.0776 123.697 36.3768 125.339L34.7808 126.903L-0.00878906 128.156H0.00229397Z" fill="#F9F9FC"/>
<path d="M0 130.663L30.7111 129.41L19.75 131.284H5.95159C4.77679 131.284 1.86195 132.571 0 131.917V130.663Z" fill="#F9F9FC"/>
<path d="M88.4727 11.3805C88.6057 11.5913 90.1906 11.9129 90.8445 12.4343C93.5488 14.5528 95.7654 16.5161 97.6606 19.4222C99.3009 21.929 99.9548 26.6209 103.413 25.8999C103.612 27.6857 102.171 28.8503 102.105 30.6029C101.639 42.8262 104.1 47.0966 97.4611 59.1536C78.5756 93.4499 37.4686 75.2591 47.2993 36.5482C47.9643 33.9194 49.261 31.8008 50.1476 29.3606C50.8015 27.5859 51.2559 23.8146 51.9652 22.5279C52.4418 21.6738 54.3813 22.5057 55.1239 21.1636L52.9405 18.3574C50.8237 20.2874 49.261 22.8274 48.1305 25.4451C45.6922 31.102 42.9991 39.4653 41.1814 45.4661C38.3664 54.7501 36.3049 64.4888 35.7175 74.1721C41.6137 69.2583 45.1492 74.5603 45.7477 80.439L50.2806 71.8317C51.3667 71.1883 51.8322 70.7668 52.6413 71.987C51.2338 77.544 47.8202 83.3784 47.1109 89.0797C46.9114 90.7213 47.5542 91.775 47.4766 93.1504C47.1995 97.687 42.7109 99.7834 42.6112 94.2485C37.9674 97.4652 36.1608 93.1393 34.7865 89.2239C32.7694 93.8936 29.9987 101.07 24.6677 94.9695C22.9609 94.6367 21.4647 98.8406 16.6104 95.5019C7.77719 89.4235 14.5157 74.6047 20.6557 68.8147C22.041 67.5169 23.9806 66.8181 25.3992 65.4094C30.4087 60.4513 42.6555 33.3315 44.8167 25.8666C45.127 24.8018 45.6257 20.487 45.8363 20.2984C46.1023 20.0544 47.4988 20.2984 48.2635 19.9102C49.9038 19.0783 51.7547 14.098 55.7889 16.4606L56.4982 12.7781H58.8367C59.5349 13.2218 58.9365 16.4163 60.477 15.8173C61.5521 14.5195 64.0014 13.5989 64.9878 12.4786C65.3868 12.0349 65.276 10.8703 65.7858 10.4377C66.3288 9.97184 67.9137 10.8925 69.0996 10.7039C69.421 10.6595 75.0401 8.94029 75.4058 8.79609C76.7801 8.21931 76.9021 5.31322 78.9967 6.7108C79.4844 7.03247 79.5509 8.18603 80.6814 8.785C81.2909 9.10667 85.0148 9.78328 85.2476 9.55034C85.2697 8.26368 85.3141 4.88063 87.442 5.79017C89.2707 6.5777 87.841 10.3157 88.4838 11.3361L88.4727 11.3805ZM79.6063 11.4693V21.5075L84.0063 12.4232L79.6063 11.4693ZM74.5857 12.1015C66.1294 11.2363 66.7389 17.9359 69.8865 23.382C71.2386 23.3931 75.1177 12.6006 74.5857 12.1015ZM92.1301 29.6601C92.9281 23.7259 96.4304 20.0766 90.5564 15.8728C89.714 15.2627 88.905 14.4641 87.7523 14.6083C87.4199 19.9213 87.6415 26.1106 92.1301 29.6601ZM64.5556 16.4939C63.6467 15.5733 55.1017 22.8052 59.2468 24.0143C61.6961 24.7352 64.0347 18.3019 64.5556 16.4939ZM85.2365 17.7473C82.7872 19.5331 83.1861 23.6926 79.7726 24.5688C75.428 25.2011 76.7801 16.505 76.1595 16.4939C73.9983 22.7498 71.3273 30.6472 65.5087 21.5297C63.7576 24.8351 59.6125 29.3939 57.008 24.6909L56.1103 24.6576C43.7749 37.9125 46.0247 72.0091 67.3928 74.2053C90.5785 76.579 105.596 47.2741 98.4253 27.4639C98.2258 26.8982 97.051 22.894 95.9095 24.0253C95.5216 25.9775 94.9009 32.7658 92.4848 32.8102C87.9075 32.91 84.2723 21.574 85.2476 17.7473H85.2365ZM27.5826 81.7257C28.3805 82.4467 32.0158 78.3981 32.3039 77.3666L36.9699 50.9899C33.7558 55.2825 32.2929 61.0947 29.1009 65.3761C24.8894 71.033 18.6607 72.7079 15.9786 81.1045C14.7817 84.8758 14.7262 93.3833 19.7247 94.2818C21.7307 94.6478 20.0461 91.2315 20.0129 90.1667C19.9353 87.0165 22.1519 84.3988 24.7786 82.9791L23.4929 77.9877C21.6199 79.4407 21.0768 81.3042 21.2874 83.6224H18.7937C18.1952 75.2813 26.4964 71.2549 27.5715 81.7479L27.5826 81.7257ZM41.2923 74.9152C38.9648 73.4844 34.0107 79.352 33.8445 81.7257C35.9724 81.282 37.7014 80.4945 39.7517 81.8033C40.8711 82.5132 40.5275 84.3988 43.2429 83.6113L41.2923 74.9152ZM40.7492 91.7639C42.456 91.6308 45.1603 85.4304 42.9326 85.508C40.8711 86.9167 41.392 89.6564 40.7492 91.7639Z" fill="#2B2B2B"/>
<path d="M164.149 69.8902C165.778 73.5838 164.526 77.3551 162.996 80.8047C158.441 91.0869 154.075 95.1466 143.402 98.1969C141.806 98.6516 136.031 100.681 135.056 99.3172L134.768 97.4204C140.298 95.7677 147.724 95.1355 152.335 91.464C155.161 89.2124 163.994 76.0462 161.711 72.9405C158.752 73.9277 157.721 77.0778 155.759 79.2074C153.11 79.2962 155.327 75.4251 153.266 75.4473C148.323 81.1818 141.385 86.7278 133.516 86.7278L133.56 84.2654C139.29 83.8661 144.876 80.3388 148.976 76.4788C150.018 75.4916 152.113 71.9089 153.122 71.4653C155.859 70.2562 156.358 72.8296 157.023 72.8407C157.699 72.8407 161.755 68.3817 164.16 69.8791L164.149 69.8902Z" fill="#2B2B2B"/>
<path d="M117.218 88.0035C115.489 87.9147 113.66 88.2031 111.942 87.948C107.72 87.3269 97.2129 78.1982 94.7746 74.3936C93.7439 72.7742 90.0754 67.7385 94.0431 68.2265C99.3741 75.8245 106.556 85.2527 116.608 85.7851L117.218 87.9924V88.0035Z" fill="#2B2B2B"/>
<path d="M115.334 152.614L117.218 162.652L115.633 163.129C114.935 162.841 114.469 162.275 114.236 161.565C113.826 160.301 112.618 153.468 113.438 152.914L115.334 152.614Z" fill="#2B2B2B"/>
<path d="M189.302 164.527L191.186 163.895C189.989 161.233 190.166 160.19 186.786 160.767L184.913 115.6C190.588 116.366 194.178 118.018 200.186 117.397C202.945 117.109 205.339 115.822 207.744 115.556C223.471 113.815 241.88 117.774 257.95 116.222L261.098 117.486L257.54 158.493C255.08 162.641 250.292 162.231 246.08 161.976C240.55 161.643 240.616 162.164 235.363 162.641C230.143 163.118 224.335 162.298 219.049 162.63C209.152 163.24 199.299 165.348 189.302 164.527Z" fill="#F9F9FC"/>
<path d="M233.797 20.2539C232.932 24.6907 235.836 34.385 241.489 33.3313C243.716 32.9209 243.938 30.2699 245.39 30.281C246.254 33.9636 250.71 32.0779 251.386 32.4661C252.926 33.3313 253.403 39.9754 259.498 37.8236C259.232 57.5118 237.454 84.1325 216.319 73.1958C201.202 65.3649 201.978 42.7484 208.904 29.5379C209.58 28.2512 214.457 20.7419 215.111 20.3648C216.064 19.8102 217.727 20.9416 218.946 20.7752C220.508 20.5534 221.761 18.2352 222.747 18.4126C225.95 22.2505 229.441 21.9399 233.797 20.2539ZM216.252 38.4447H214.379L213.759 43.4583L215.964 42.8482L216.264 38.4336L216.252 38.4447ZM238.818 47.2295C238.54 45.1553 239.959 41.0402 236.944 40.9626L236.413 46.198L236.911 46.9633L238.829 47.2406L238.818 47.2295ZM220.652 52.2542C218.403 56.935 225.296 62.5808 229.408 60.7063C230.671 60.1295 234.351 54.1842 234.273 53.1859C234.052 50.2909 223.046 53.1526 220.652 52.2542Z" fill="#F9F9FC"/>
<path d="M90.8896 151.993L90.9451 145.781C92.4302 145.349 94.8463 145.415 95.9324 144.184C98.2931 141.5 102.028 133.88 102.095 130.286C102.205 124.629 99.1133 125.66 95.5778 123.143L95.2674 124.396L94.0926 123.398L97.0961 105.983C97.7611 104.919 102.66 104.087 104.001 103.332C106.761 101.791 110.496 99.1285 113.632 97.2873C118.741 94.2814 123.64 88.2917 127.674 96.9656C124.504 111.596 124.172 126.692 121.257 141.3C112.08 147.035 101.33 149.486 90.8896 151.993ZM108.855 116.332C105.708 118.551 104.056 128.855 109.376 128.844C114.109 128.844 117.267 114.18 108.855 116.332Z" fill="#F9F9FC"/>
<path d="M293.349 140.069L292.662 161.332C286.71 163.695 281.734 162.475 275.893 160.678C276.059 157.339 273.3 146.369 275.117 144.084C276.17 142.764 278.254 143.385 279.717 143.042C284.283 141.977 288.639 140.479 293.349 140.069Z" fill="#F9F9FC"/>
<path d="M253.128 18.2797C250.168 19.1116 252.064 29.6157 249.149 30.2812C244.86 31.2684 248.96 17.6142 246.644 17.115C243.674 16.4828 244.771 30.2036 240.393 30.9467C237.235 30.9578 236.038 22.3394 236.27 19.888C236.581 16.6825 239.983 14.3088 238.819 10.2048C244.472 10.1382 249.625 13.3216 253.227 17.4367L253.139 18.2686L253.128 18.2797Z" fill="#F9F9FC"/>
<path d="M235.048 10.2271C234.483 16.8379 231.379 22.2618 224.674 17.1152C223.965 11.3917 230.67 10.4378 235.048 10.2271Z" fill="#F9F9FC"/>
<path d="M257.584 35.2833C253.35 38.0673 253.273 22.5275 254.492 20.2537C256.93 22.4388 259.224 28.7168 258.859 31.8004C258.814 32.2219 257.728 35.1723 257.573 35.2833H257.584Z" fill="#F9F9FC"/>
<path d="M61.4334 170.184C61.5774 171.293 60.0147 170.783 59.25 170.816C42.5811 171.515 25.746 170.206 9.07711 170.794C8.13505 170.827 0.631836 172.258 0.631836 171.138C1.56281 171.171 3.41368 170.195 4.08974 170.195H61.4444L61.4334 170.184Z" fill="#F9F9FC"/>
<path d="M109.688 169.552H87.7549V170.184H109.688V169.552Z" fill="#F9F9FC"/>
<path d="M34.4826 119.993H13.1699V120.625H34.4826V119.993Z" fill="#F9F9FC"/>
<path d="M85.2407 17.7473C84.2654 21.5629 87.9006 32.8989 92.4779 32.8102C94.894 32.7547 95.5258 25.9775 95.9026 24.0253C97.0331 22.905 98.2079 26.8981 98.4184 27.4638C105.589 47.2741 90.5716 76.579 67.3859 74.2053C46.0179 72.0202 43.768 37.9125 56.1034 24.6576L57.0011 24.6909C59.6056 29.3938 63.7507 24.835 65.5018 21.5296C71.3315 30.6472 73.9914 22.7387 76.1526 16.4939C76.7844 16.505 75.4322 25.2011 79.7657 24.5688C83.1793 23.7037 82.7803 19.5331 85.2296 17.7473H85.2407ZM85.8724 44.7118C86.0387 43.6248 85.684 37.4022 83.6891 37.8126C81.9158 38.1787 82.7249 45.8432 85.8724 44.7118ZM68.3169 47.8508C69.525 40.3971 65.0696 37.4688 65.9119 46.8193L66.3995 47.5846L68.3169 47.8619V47.8508ZM78.9788 53.4967C76.6403 53.2083 74.5456 54.3396 72.329 54.6835C70.0348 55.0384 65.4353 53.6187 65.9008 56.8131C66.9648 64.0562 81.0513 62.4479 78.9788 53.4967Z" fill="#F9F9FC"/>
<path d="M27.5867 81.7254C26.5227 71.2324 18.2215 75.2699 18.8089 83.611H21.3026C21.1031 81.2928 21.6462 79.4183 23.5082 77.9763L24.7938 82.9677C22.1671 84.3986 19.9616 87.0052 20.0281 90.1553C20.0502 91.2201 21.746 94.6364 19.7399 94.2704C14.7415 93.372 14.7858 84.8644 15.9939 81.0932C18.6649 72.6966 24.9046 71.0217 29.1162 65.3648C32.3081 61.0833 33.771 55.2711 36.9851 50.9785L32.3192 77.3552C32.031 78.3978 28.3958 82.4353 27.5978 81.7143L27.5867 81.7254Z" fill="#F9F9FC"/>
<path d="M92.1333 29.6599C87.6447 26.1105 87.423 19.9212 87.7555 14.6081C88.9081 14.464 89.7172 15.2626 90.5595 15.8726C96.4224 20.0876 92.9313 23.7257 92.1333 29.6599Z" fill="#F9F9FC"/>
<path d="M74.5862 12.1011C75.1181 12.6002 71.2391 23.3927 69.8869 23.3816C66.7394 17.9355 66.1298 11.2359 74.5862 12.1011Z" fill="#F9F9FC"/>
<path d="M41.2945 74.9148L43.2451 83.6109C40.5297 84.3985 40.8844 82.5128 39.7539 81.8029C37.6925 80.4941 35.9746 81.2816 33.8467 81.7253C34.0129 79.3516 38.956 73.484 41.2945 74.9148Z" fill="#F9F9FC"/>
<path d="M79.6074 11.4689L83.9963 12.4228L79.6074 21.5071V11.4689Z" fill="#F9F9FC"/>
<path d="M64.5618 16.4939C64.0409 18.2908 61.7135 24.7353 59.253 24.0143C55.108 22.8053 63.653 15.5733 64.5618 16.4939Z" fill="#F9F9FC"/>
<path d="M40.7559 91.7636C41.3987 89.645 40.8778 86.9164 42.9392 85.5077C45.1558 85.4412 42.4516 91.6305 40.7559 91.7636Z" fill="#F9F9FC"/>
<path d="M220.655 52.254C223.049 53.1525 234.055 50.2908 234.277 53.1858C234.354 54.184 230.675 60.1293 229.411 60.7061C225.299 62.5806 218.406 56.9348 220.655 52.254ZM230.663 54.7608C227.992 53.6183 225.244 54.6499 222.517 55.0603C225.155 58.8538 229.777 60.5841 230.663 54.7608Z" fill="#2B2B2B"/>
<path d="M238.814 47.2295L236.896 46.9522L236.397 46.1868L236.929 40.9514C239.944 41.0291 238.525 45.1442 238.802 47.2184L238.814 47.2295Z" fill="#2B2B2B"/>
<path d="M216.252 38.4448L215.953 42.8483L213.747 43.4584L214.368 38.4448H216.252Z" fill="#2B2B2B"/>
<path d="M108.854 116.332C117.266 114.181 114.119 128.833 109.375 128.844C104.044 128.844 105.707 118.551 108.854 116.332Z" fill="#2B2B2B"/>
<path d="M78.977 53.4967C81.0496 62.4479 66.9741 64.0562 65.899 56.8132C65.4336 53.6187 70.033 55.0495 72.3272 54.6835C74.5438 54.3397 76.6274 53.1972 78.977 53.4967ZM69.5786 56.6468C68.7585 57.3456 71.8174 59.9855 72.9257 59.6527C74.4884 59.5085 76.572 57.0794 76.4612 55.3934L69.5786 56.6468Z" fill="#2B2B2B"/>
<path d="M85.8694 44.7119C82.7218 45.8433 81.9239 38.1898 83.6861 37.8127C85.681 37.3912 86.0246 43.6138 85.8694 44.7119Z" fill="#2B2B2B"/>
<path d="M68.3174 47.8509L66.4001 47.5736L65.9124 46.8082C65.0701 37.4577 69.5255 40.3971 68.3174 47.8398V47.8509Z" fill="#2B2B2B"/>
<path d="M230.664 54.7609C229.777 60.5842 225.155 58.8538 222.518 55.0604C225.244 54.65 227.993 53.6073 230.664 54.7609Z" fill="#F9F9FC"/>
<path d="M69.5803 56.6466L76.4629 55.3932C76.5737 57.0792 74.4901 59.5083 72.9274 59.6525C71.8191 59.9853 68.7602 57.3565 69.5803 56.6466Z" fill="#F9F9FC"/>
</g>
<defs>
<clipPath id="clip0_2940_8088">
<rect width="307" height="193" fill="white"/>
</clipPath>
</defs>
</svg>
