<svg width="63" height="63" viewBox="0 0 63 63" fill="none" xmlns="http://www.w3.org/2000/svg">
<path d="M61 46L61 33.5C60.2 28.3 56.6667 29 55 30C47 34 45 27.3333 45 23.5C46.2 15.1 51.5 16 54 17.5C58 19.5 59.6667 17.3333 60 16L60 2L17 2" stroke="#5F4B8B" stroke-width="2.5" stroke-linecap="round" stroke-linejoin="round"/>
<path d="M17 2L17 16C16.6667 17.3333 15 19.5 11 17.5C8.5 16 3.2 15.1 2 23.5C2 27.3333 4 34 12 30C13.6667 29 17.2 28.3 18 33.5L18 46" stroke="#5F4B8B" stroke-width="2.5" stroke-linecap="round" stroke-linejoin="round"/>
<path d="M18 46H28.5C30.5 45.8333 34.4 46.6 34 51C31.8333 55 31 61.5 40 61.5C43.5 61.3333 49.4 58.6 45 51C44.1667 49.5 43.7 46.4 48.5 46H61" stroke="#5F4B8B" stroke-width="2.5" stroke-linecap="round" stroke-linejoin="round"/>
<circle cx="26" cy="20" r="2" fill="#5F4B8B"/>
<circle cx="25.5" cy="20.5" r="5" stroke="#5F4B8B"/>
<circle cx="36" cy="20" r="2" fill="#5F4B8B"/>
<path d="M20.5 20V29.5" stroke="#5F4B8B" stroke-linecap="round"/>
<path d="M25.5 33C27.1667 35 31.6 37.7 36 32.5" stroke="#5F4B8B" stroke-width="2.5" stroke-linecap="round" stroke-linejoin="round"/>
</svg>
