<svg width="96" height="78" viewBox="0 0 96 78" fill="none" xmlns="http://www.w3.org/2000/svg">
<path d="M53.5293 57.981C51.9895 50.481 43.7864 50.03 41.3507 57.981" stroke="#5F4B8B" stroke-width="4.16826" stroke-linecap="round" stroke-linejoin="round"/>
<path d="M38.8477 29.6768L41.3486 37.1796" stroke="#5F4B8B" stroke-width="4.16826" stroke-linecap="round" stroke-linejoin="round"/>
<path d="M54.6855 29.6768L57.1865 37.1796" stroke="#5F4B8B" stroke-width="4.16826" stroke-linecap="round" stroke-linejoin="round"/>
<path d="M4.66731 3V26.3423C5.22307 28.5654 8.00192 32.1778 14.6711 28.8432C18.8394 26.3423 27.6761 24.8417 29.6769 38.8471C29.6769 45.2384 26.3423 56.3538 13.0038 49.6846C10.225 48.0172 4.33384 46.8501 3 55.5201V75.5278" stroke="#5F4B8B" stroke-width="4.16826" stroke-linecap="round" stroke-linejoin="round"/>
<path d="M4.66797 3H91.3679V26.3423C90.8121 28.5654 88.0332 32.1778 81.364 28.8432C77.1958 26.3423 68.359 24.8417 66.3583 38.8471C66.3583 45.2384 69.6929 56.3538 83.0313 49.6846C85.8102 48.0172 91.7013 46.8501 93.0352 55.5201V75.5278H3.00066" stroke="#5F4B8B" stroke-width="4.16826" stroke-linecap="round" stroke-linejoin="round"/>
</svg>
