<svg width="216" height="69" viewBox="0 0 216 69" fill="none" xmlns="http://www.w3.org/2000/svg">
<path d="M139.149 0.184722C140.103 0.451105 140.038 2.40565 139.945 3.23048L135.141 33.8838C139.32 29.0632 145.693 24.2394 152.488 26.0014C163.634 28.8931 158.014 44.7509 157.591 52.3252C157.071 61.6229 162.774 59.5625 166.404 53.7566C171.478 45.6399 170.49 38.6819 172.457 29.9619C172.919 27.9142 173.112 27.0862 175.416 26.823C176.751 26.6722 183.218 26.6497 184.046 27.1761C184.39 27.3943 184.601 27.7281 184.755 28.0972L181.033 53.6218C181.456 56.3948 181.604 58.8115 185.051 58.6221C190.5 58.3204 193.787 49.0323 194.737 44.5423C195.298 41.8913 196.701 28.7134 197.699 27.6061C198.614 26.5887 205.963 26.6048 207.488 26.8455C208.807 27.0509 209.314 27.9174 209.285 29.2141C208.515 36.8044 205.931 45.1906 205.466 52.7007C205.293 55.5122 205.485 58.8821 209.109 58.6061C210.113 58.529 211.159 57.6079 212.016 58.2498C212.43 58.5579 214.915 62.7944 214.995 63.3271C215.409 66.0263 207.453 68.7094 205.257 68.8602C200.639 69.1779 196.55 66.7484 194.348 62.7751C188.815 69.1041 176.279 71.8578 170.611 64.3574C170.332 63.9883 170.153 63.555 170.114 63.0896H169.642C164.141 69.6016 151.933 71.7038 146.948 63.632C142.895 57.0623 146.406 49.8411 146.968 42.989C147.221 39.9111 147.234 35.5912 142.869 37.6067C137.946 39.879 133.498 50.0208 132.085 55.0661C130.981 59.0105 130.847 63.1731 129.534 66.957C129.223 67.2041 128.876 67.4256 128.484 67.5123C127.377 67.7562 120.381 67.7915 119.254 67.5732C118.002 67.3325 117.848 65.5962 117.646 65.6572C111.308 70.4296 101.252 70.2531 97.1026 62.7719C90.5971 70.8468 74.8708 71.9124 72.5472 59.877C67.6047 62.5601 60.3064 61.854 57.1387 56.9885C52.286 63.9915 46.6631 69.6144 37.4103 68.857C33.2284 68.5168 28.456 66.2381 26.97 62.1236C26.1324 61.992 26.0457 62.9452 25.529 63.4042C15.4225 72.4419 -1.14142 71.2288 0.0621197 54.6232C0.659075 46.4038 3.24588 37.6132 3.96158 29.3168C4.2055 28.3892 4.43979 27.2948 5.45718 26.961C6.47457 26.6273 13.3845 26.6465 14.6041 26.8391C15.4 26.9642 15.9649 27.3205 16.2633 28.094L12.6624 53.3522C12.887 61.8636 19.6878 58.6157 22.7464 53.5544C27.2717 46.0636 26.2993 36.2074 28.5747 27.9303C28.8828 27.6832 29.2327 27.1247 29.5568 26.9867C30.3945 26.6401 37.3943 26.6818 38.7005 26.8198C39.1787 26.8712 39.6633 26.9225 40.0645 27.2178C40.5524 28.0169 40.5106 28.9637 40.4593 29.8624C40.087 36.3551 35.6451 50.5857 37.6574 56.1027C39.1017 60.0664 43.6719 58.513 46.0854 56.353C47.5457 55.0468 50.8001 50.0465 50.7134 48.1882C50.6781 47.3923 50.0202 46.3781 49.8565 45.5052C48.8359 39.9881 47.9597 27.4136 56.0732 26.8391C62.3765 26.3962 63.5447 33.8228 63.2623 38.5439C63.1147 41.0216 61.4522 45.6367 61.7122 47.434C62.1968 50.759 65.8395 53.7341 69.1356 51.8021C75.3298 48.1658 74.1969 34.0924 76.3857 27.9207C76.8832 27.3783 77.432 26.9546 78.1862 26.8327C79.2999 26.6561 86.1969 26.6273 87.0859 26.884C88.2927 27.2306 88.3152 28.524 88.2766 29.535C87.9621 37.5554 83.9953 47.5464 84.7302 55.5571C85.2213 60.904 90.0707 58.1182 92.2596 55.3549C96.7816 49.6485 98.1745 41.5864 98.8678 34.5193C97.4043 34.3652 94.3425 35.1676 93.7969 33.3286C93.5369 32.4524 94.4933 26.8455 95.0903 26.2518C96.0371 25.3114 99.1759 25.5714 100.469 25.5328C100.774 23.1835 101.034 20.7283 101.538 18.4175C101.801 17.2108 101.788 15.7537 103.12 15.1856C104.038 14.7941 110.91 14.7588 112.203 14.9289C113.496 15.099 113.978 15.8115 113.968 17.0118C113.943 19.5793 112.678 22.8562 112.668 25.536H117.964C120.83 25.536 119.533 32.0833 118.593 33.5468C117.341 35.4917 113.063 34.1085 111.067 34.5257C110.81 41.2013 107.716 49.2955 108.49 55.8716C108.804 58.5643 111.336 59.1581 113.535 58.0155C116.857 56.2889 120.445 48.1337 121.238 44.5359C124.235 30.9247 125.038 16.0907 127.839 2.3543C127.775 1.62576 128.905 0.178302 129.515 0.178302C131.537 0.178302 137.712 -0.222877 139.143 0.178302L139.149 0.184722Z" fill="url(#paint0_linear_2918_81156)"/>
<path d="M83.6999 8.60311C93.5175 6.93099 93.1196 19.8682 84.8328 21.2868C75.1692 22.9429 75.8849 9.93502 83.6999 8.60311Z" fill="url(#paint1_linear_2918_81156)"/>
<defs>
<linearGradient id="paint0_linear_2918_81156" x1="0" y1="34.5" x2="215.01" y2="34.5" gradientUnits="userSpaceOnUse">
<stop offset="0.3" stop-color="#5F4B8B"/>
<stop offset="1" stop-color="#2B2B2B" stop-opacity="0.8"/>
</linearGradient>
<linearGradient id="paint1_linear_2918_81156" x1="77.7109" y1="14.9432" x2="91.0583" y2="14.9432" gradientUnits="userSpaceOnUse">
<stop offset="0.3" stop-color="#5F4B8B"/>
<stop offset="1" stop-color="#2B2B2B" stop-opacity="0.8"/>
</linearGradient>
</defs>
</svg>
