<svg width="670" height="215" viewBox="0 0 670 215" fill="none" xmlns="http://www.w3.org/2000/svg">
<path d="M433.564 0.57556C436.534 1.40556 436.334 7.49557 436.044 10.0656L421.074 105.576C434.094 90.5556 453.954 75.5256 475.124 81.0156C509.854 90.0256 492.344 139.436 491.024 163.036C489.404 192.006 507.174 185.586 518.484 167.496C534.294 142.206 531.214 120.526 537.344 93.3556C538.784 86.9756 539.384 84.3956 546.564 83.5756C550.724 83.1056 570.874 83.0356 573.454 84.6756C574.524 85.3556 575.184 86.3956 575.664 87.5456L564.064 167.076C565.384 175.716 565.844 183.246 576.584 182.656C593.564 181.716 603.804 152.776 606.764 138.786C608.514 130.526 612.884 89.4656 615.994 86.0156C618.844 82.8456 641.744 82.8956 646.494 83.6456C650.604 84.2856 652.184 86.9856 652.094 91.0256C649.694 114.676 641.644 140.806 640.194 164.206C639.654 172.966 640.254 183.466 651.544 182.606C654.674 182.366 657.934 179.496 660.604 181.496C661.893 182.456 669.634 195.656 669.884 197.316C671.174 205.726 646.384 214.086 639.544 214.556C625.154 215.546 612.414 207.976 605.554 195.596C588.314 215.316 549.254 223.896 531.594 200.526C530.724 199.376 530.164 198.026 530.044 196.576H528.574C511.434 216.866 473.394 223.416 457.864 198.266C445.234 177.796 456.174 155.296 457.924 133.946C458.714 124.356 458.754 110.896 445.154 117.176C429.814 124.256 415.954 155.856 411.554 171.576C408.114 183.866 407.694 196.836 403.604 208.626C402.634 209.396 401.554 210.086 400.334 210.356C396.884 211.116 375.084 211.226 371.574 210.546C367.674 209.796 367.194 204.386 366.564 204.576C346.814 219.446 315.484 218.896 302.554 195.586C282.284 220.746 233.284 224.066 226.044 186.566C210.644 194.926 187.904 192.726 178.034 177.566C162.914 199.386 145.394 216.906 116.564 214.546C103.534 213.486 88.6636 206.386 84.0336 193.566C81.4236 193.156 81.1536 196.126 79.5436 197.556C48.0536 225.716 -3.55645 221.936 0.193553 170.196C2.05355 144.586 10.1136 117.196 12.3436 91.3456C13.1036 88.4556 13.8336 85.0456 17.0036 84.0056C20.1736 82.9656 41.7036 83.0256 45.5036 83.6256C47.9836 84.0156 49.7436 85.1256 50.6736 87.5356L39.4536 166.236C40.1536 192.756 61.3436 182.636 70.8736 166.866C84.9736 143.526 81.9436 112.816 89.0336 87.0256C89.9936 86.2556 91.0835 84.5156 92.0936 84.0856C94.7036 83.0056 116.514 83.1356 120.584 83.5656C122.074 83.7256 123.584 83.8856 124.834 84.8056C126.354 87.2956 126.224 90.2456 126.064 93.0456C124.904 113.276 111.064 157.616 117.334 174.806C121.834 187.156 136.074 182.316 143.594 175.586C148.144 171.516 158.284 155.936 158.014 150.146C157.904 147.666 155.854 144.506 155.344 141.786C152.164 124.596 149.434 85.4156 174.714 83.6256C194.354 82.2456 197.994 105.386 197.114 120.096C196.654 127.816 191.474 142.196 192.284 147.796C193.794 158.156 205.144 167.426 215.414 161.406C234.714 150.076 231.184 106.226 238.004 86.9956C239.554 85.3056 241.264 83.9856 243.614 83.6056C247.084 83.0556 268.574 82.9656 271.344 83.7656C275.104 84.8456 275.174 88.8756 275.054 92.0256C274.074 117.016 261.714 148.146 264.004 173.106C265.534 189.766 280.644 181.086 287.464 172.476C301.554 154.696 305.894 129.576 308.054 107.556C303.494 107.076 293.954 109.576 292.254 103.846C291.444 101.116 294.424 83.6456 296.284 81.7956C299.234 78.8656 309.014 79.6756 313.044 79.5556C313.994 72.2356 314.804 64.5856 316.374 57.3856C317.194 53.6256 317.154 49.0856 321.304 47.3156C324.164 46.0956 345.574 45.9856 349.604 46.5156C353.634 47.0456 355.134 49.2656 355.104 53.0056C355.024 61.0056 351.084 71.2156 351.054 79.5656H367.554C376.484 79.5656 372.444 99.9656 369.514 104.526C365.614 110.586 352.284 106.276 346.064 107.576C345.264 128.376 335.624 153.596 338.034 174.086C339.014 182.476 346.904 184.326 353.754 180.766C364.104 175.386 375.284 149.976 377.754 138.766C387.094 96.3556 389.594 50.1356 398.324 7.33557C398.124 5.06557 401.644 0.555556 403.544 0.555556C409.844 0.555556 429.084 -0.694444 433.544 0.555556L433.564 0.57556Z" fill="url(#paint0_linear_2918_81196)"/>
<defs>
<linearGradient id="paint0_linear_2918_81196" x1="0" y1="107.496" x2="669.932" y2="107.496" gradientUnits="userSpaceOnUse">
<stop offset="0.3" stop-color="#5F4B8B"/>
<stop offset="1" stop-color="#2B2B2B" stop-opacity="0.8"/>
</linearGradient>
</defs>
</svg>
