<svg width="58" height="47" viewBox="0 0 58 47" fill="none" xmlns="http://www.w3.org/2000/svg">
<g id="Group 4">
<path id="Vector 465" d="M25 31.5C25.9235 35.9982 30.8435 36.2687 32.3044 31.5" stroke="#5F4B8B" stroke-width="2.5" stroke-linecap="round" stroke-linejoin="round"/>
<path id="Vector 468" d="M23.5 18L25 22.5" stroke="#5F4B8B" stroke-width="2.5" stroke-linecap="round" stroke-linejoin="round"/>
<path id="Vector 469" d="M33 18L34.5 22.5" stroke="#5F4B8B" stroke-width="2.5" stroke-linecap="round" stroke-linejoin="round"/>
<path id="Vector 466" d="M3 2V16C3.33333 17.3333 5 19.5 9 17.5C11.5 16 16.8 15.1 18 23.5C18 27.3333 16 34 8 30C6.33333 29 2.8 28.3 2 33.5V45.5" stroke="#5F4B8B" stroke-width="2.5" stroke-linecap="round" stroke-linejoin="round"/>
<path id="Vector 467" d="M3 2H55V16C54.6667 17.3333 53 19.5 49 17.5C46.5 16 41.2 15.1 40 23.5C40 27.3333 42 34 50 30C51.6667 29 55.2 28.3 56 33.5V45.5H2" stroke="#5F4B8B" stroke-width="2.5" stroke-linecap="round" stroke-linejoin="round"/>
</g>
</svg>
