<svg width="76" height="46" viewBox="0 0 76 46" fill="none" xmlns="http://www.w3.org/2000/svg">
<g id="Group 4">
<path id="Vector 464" d="M17.2491 14V2H29.75C34.15 2.8 32.9167 7 31.75 9C28.55 18.2 37.4167 18.1667 42.25 17C48.25 14.6 45.75 9.33333 43.75 7C42.55 3.8 45.5833 2.33333 47.25 2H59.75V14.5C59.35 16.5 61.9167 18 63.25 18.5C72.05 11.3 74.5833 18.8333 74.75 23.5C73.55 33.1 67.9167 31.5 65.25 29.5C61.65 27.1 59.75 29.8333 59.25 31.5V44.5H17.25V32C16.05 26 10.7494 28.5 8.24912 30.5C1.84912 31.3 1.58245 24.1667 2.24912 20.5C3.84912 12.5 10.5824 15.5 13.7491 18C16.5491 18 17.2491 15.3333 17.2491 14Z" stroke="#5F4B8B" stroke-width="2.5" stroke-linejoin="round"/>
<ellipse id="Ellipse 2" cx="31" cy="27" rx="2" ry="3" fill="#5F4B8B"/>
<ellipse id="Ellipse 3" cx="46" cy="27" rx="2" ry="3" fill="#5F4B8B"/>
<path id="Vector 465" d="M31 34.0854C32.9355 40.9351 43.0412 41.2902 45.9998 34.0002" stroke="#5F4B8B" stroke-width="2.5" stroke-linecap="round" stroke-linejoin="round"/>
</g>
</svg>
