<svg width="53" height="53" viewBox="0 0 53 53" fill="none" xmlns="http://www.w3.org/2000/svg">
<path d="M23.5 12.5H23.51M29.5 12.5H29.51M36.5 15.5C36.5 21.0228 32.0228 25.5 26.5 25.5C20.9772 25.5 16.5 21.0228 16.5 15.5C16.5 9.97715 20.9772 5.5 26.5 5.5C32.0228 5.5 36.5 9.97715 36.5 15.5ZM32.5 16.5C32.2614 17.9124 31.5254 19.1929 30.4249 20.1099C29.3245 21.0269 27.9323 21.52 26.5 21.5C25.0677 21.52 23.6755 21.0269 22.5751 20.1099C21.4746 19.1929 20.7386 17.9124 20.5 16.5H32.5Z" stroke="#2B2B2B" stroke-width="2" stroke-linecap="round" stroke-linejoin="round"/>
<path d="M17.7796 31.768H19.5436V44.732H17.7796V31.768ZM16.0856 36.766H18.2416V38.264H16.0856V36.766ZM14.8816 31.992H16.6176V44.13H14.8816V31.992ZM8.95964 33.21H10.8216V40.7H8.95964V33.21ZM8.95964 39.986H9.85564C10.481 39.986 11.153 39.9673 11.8716 39.93C12.5996 39.8833 13.365 39.7807 14.1676 39.622L14.3356 41.218C13.4956 41.3673 12.7023 41.4653 11.9556 41.512C11.209 41.5587 10.509 41.582 9.85564 41.582H8.95964V39.986ZM27.6625 34.904H30.1265V36.416H27.6625V34.904ZM29.6085 31.782H31.4845V39.482H29.6085V31.782ZM27.0885 39.762C28.0032 39.762 28.7919 39.86 29.4545 40.056C30.1172 40.252 30.6259 40.5367 30.9805 40.91C31.3445 41.2833 31.5265 41.7313 31.5265 42.254C31.5265 43.0567 31.1299 43.6727 30.3365 44.102C29.5432 44.5407 28.4605 44.76 27.0885 44.76C25.7165 44.76 24.6339 44.5407 23.8405 44.102C23.0472 43.6727 22.6505 43.0567 22.6505 42.254C22.6505 41.7313 22.8279 41.2833 23.1825 40.91C23.5465 40.5367 24.0599 40.252 24.7225 40.056C25.3852 39.86 26.1739 39.762 27.0885 39.762ZM27.0885 41.176C26.5285 41.176 26.0572 41.218 25.6745 41.302C25.2919 41.3767 24.9979 41.4933 24.7925 41.652C24.5965 41.8107 24.4985 42.0113 24.4985 42.254C24.4985 42.4967 24.5965 42.702 24.7925 42.87C24.9979 43.0287 25.2919 43.15 25.6745 43.234C26.0572 43.3087 26.5285 43.346 27.0885 43.346C27.6485 43.346 28.1199 43.3087 28.5025 43.234C28.8852 43.15 29.1745 43.0287 29.3705 42.87C29.5665 42.702 29.6645 42.4967 29.6645 42.254C29.6645 42.0113 29.5665 41.8107 29.3705 41.652C29.1745 41.4933 28.8852 41.3767 28.5025 41.302C28.1199 41.218 27.6485 41.176 27.0885 41.176ZM23.6305 33.07H25.1425V33.896C25.1425 34.7173 25.0119 35.5013 24.7505 36.248C24.4892 36.9947 24.0879 37.6527 23.5465 38.222C23.0145 38.782 22.3332 39.202 21.5025 39.482L20.5645 38.012C21.0965 37.8347 21.5539 37.5967 21.9365 37.298C22.3285 36.9993 22.6459 36.668 22.8885 36.304C23.1405 35.9307 23.3272 35.5387 23.4485 35.128C23.5699 34.7173 23.6305 34.3067 23.6305 33.896V33.07ZM24.0225 33.07H25.5065V33.882C25.5065 34.3953 25.6092 34.8993 25.8145 35.394C26.0199 35.8887 26.3372 36.3367 26.7665 36.738C27.2052 37.1393 27.7652 37.4567 28.4465 37.69L27.5365 39.146C26.7339 38.8753 26.0712 38.4787 25.5485 37.956C25.0352 37.424 24.6525 36.808 24.4005 36.108C24.1485 35.3987 24.0225 34.6567 24.0225 33.882V33.07ZM21.0685 32.566H28.0405V34.036H21.0685V32.566ZM32.8135 41.722H44.5595V43.234H32.8135V41.722ZM37.7415 38.95H39.5895V42.086H37.7415V38.95ZM34.0455 32.594H35.9075V34.596H41.4235V32.594H43.2715V39.342H34.0455V32.594ZM35.9075 36.052V37.858H41.4235V36.052H35.9075Z" fill="#2B2B2B"/>
</svg>
