<svg width="31" height="43" viewBox="0 0 31 43" fill="none" xmlns="http://www.w3.org/2000/svg">
<path d="M12 9H12.01M18 9H18.01M25 12C25 17.5228 20.5228 22 15 22C9.47715 22 5 17.5228 5 12C5 6.47715 9.47715 2 15 2C20.5228 2 25 6.47715 25 12ZM21 13C20.7614 14.4124 20.0254 15.6929 18.9249 16.6099C17.8245 17.5269 16.4323 18.02 15 18C13.5677 18.02 12.1755 17.5269 11.0751 16.6099C9.97464 15.6929 9.2386 14.4124 9 13H21Z" stroke="#A498BD" stroke-linecap="round" stroke-linejoin="round"/>
<path d="M7.87341 28.076H8.83341V38.936H7.87341V28.076ZM6.06141 32.492H8.14941V33.32H6.06141V32.492ZM5.41341 28.316H6.34941V38.372H5.41341V28.316ZM0.169407 29.384H1.16541V35.648H0.169407V29.384ZM0.169407 35.252H0.853407C1.42141 35.252 2.01741 35.232 2.64141 35.192C3.26541 35.144 3.92941 35.048 4.63341 34.904L4.75341 35.78C4.01741 35.924 3.32941 36.02 2.68941 36.068C2.04941 36.108 1.43741 36.128 0.853407 36.128H0.169407V35.252ZM15.8765 30.896H18.3125V31.724H15.8765V30.896ZM18.0125 28.076H19.0085V34.544H18.0125V28.076ZM15.4325 34.88C16.1845 34.88 16.8285 34.96 17.3645 35.12C17.9085 35.28 18.3245 35.512 18.6125 35.816C18.9005 36.112 19.0445 36.476 19.0445 36.908C19.0445 37.548 18.7205 38.044 18.0725 38.396C17.4325 38.748 16.5525 38.924 15.4325 38.924C14.3125 38.924 13.4285 38.748 12.7805 38.396C12.1405 38.044 11.8205 37.548 11.8205 36.908C11.8205 36.476 11.9645 36.112 12.2525 35.816C12.5485 35.512 12.9645 35.28 13.5005 35.12C14.0445 34.96 14.6885 34.88 15.4325 34.88ZM15.4325 35.66C14.8885 35.66 14.4205 35.708 14.0285 35.804C13.6365 35.9 13.3325 36.04 13.1165 36.224C12.9085 36.408 12.8045 36.636 12.8045 36.908C12.8045 37.164 12.9085 37.384 13.1165 37.568C13.3325 37.752 13.6365 37.896 14.0285 38C14.4205 38.096 14.8885 38.144 15.4325 38.144C15.9845 38.144 16.4525 38.096 16.8365 38C17.2285 37.896 17.5285 37.752 17.7365 37.568C17.9525 37.384 18.0605 37.164 18.0605 36.908C18.0605 36.636 17.9525 36.408 17.7365 36.224C17.5285 36.04 17.2285 35.9 16.8365 35.804C16.4525 35.708 15.9845 35.66 15.4325 35.66ZM12.8405 29.18H13.6565V30.056C13.6565 30.72 13.5285 31.344 13.2725 31.928C13.0245 32.504 12.6725 33.012 12.2165 33.452C11.7605 33.884 11.2325 34.216 10.6325 34.448L10.1165 33.656C10.5245 33.512 10.8925 33.316 11.2205 33.068C11.5565 32.82 11.8445 32.536 12.0845 32.216C12.3325 31.896 12.5205 31.552 12.6485 31.184C12.7765 30.816 12.8405 30.44 12.8405 30.056V29.18ZM13.0325 29.18H13.8485V30.044C13.8485 30.508 13.9565 30.96 14.1725 31.4C14.3885 31.84 14.6965 32.228 15.0965 32.564C15.4965 32.9 15.9565 33.164 16.4765 33.356L15.9725 34.148C15.3805 33.932 14.8645 33.62 14.4245 33.212C13.9845 32.796 13.6405 32.316 13.3925 31.772C13.1525 31.228 13.0325 30.652 13.0325 30.044V29.18ZM10.4285 28.868H16.2245V29.684H10.4285V28.868ZM20.5195 36.728H30.3595V37.556H20.5195V36.728ZM24.9235 34.124H25.9075V36.968H24.9235V34.124ZM21.6715 28.844H22.6675V30.776H28.1875V28.844H29.1715V34.4H21.6715V28.844ZM22.6675 31.592V33.584H28.1875V31.592H22.6675Z" fill="#A498BD"/>
</svg>
