<svg width="54" height="53" viewBox="0 0 54 53" fill="none" xmlns="http://www.w3.org/2000/svg">
<path d="M31.166 5.5V7.5M22.166 25.5V23.5C22.166 22.9696 22.3767 22.4609 22.7518 22.0858C23.1269 21.7107 23.6356 21.5 24.166 21.5H30.166C30.6964 21.5 31.2052 21.7107 31.5802 22.0858C31.9553 22.4609 32.166 22.9696 32.166 23.5V25.5M23.166 5.5V7.5M30.166 14.5C30.166 16.1569 28.8229 17.5 27.166 17.5C25.5092 17.5 24.166 16.1569 24.166 14.5C24.166 12.8431 25.5092 11.5 27.166 11.5C28.8229 11.5 30.166 12.8431 30.166 14.5ZM20.166 7.5H34.166C35.2706 7.5 36.166 8.39543 36.166 9.5V23.5C36.166 24.6046 35.2706 25.5 34.166 25.5H20.166C19.0614 25.5 18.166 24.6046 18.166 23.5V9.5C18.166 8.39543 19.0614 7.5 20.166 7.5Z" stroke="#2B2B2B" stroke-width="2" stroke-linecap="round" stroke-linejoin="round"/>
<path d="M15.6731 37.452H16.7511C17.5911 37.452 18.3331 37.4473 18.9771 37.438C19.6304 37.4193 20.2324 37.3867 20.7831 37.34C21.3338 37.284 21.8938 37.2047 22.4631 37.102L22.6591 38.558C22.0804 38.6607 21.5018 38.74 20.9231 38.796C20.3444 38.8427 19.7191 38.8753 19.0471 38.894C18.3844 38.9127 17.6191 38.922 16.7511 38.922H15.6731V37.452ZM15.6731 32.524H21.7631V33.994H17.5351V38.026H15.6731V32.524ZM16.9611 34.988H21.4971V36.43H16.9611V34.988ZM16.9751 39.93H25.4031V44.606H16.9751V39.93ZM23.5831 41.386H18.8091V43.136H23.5831V41.386ZM23.5411 31.782H25.4031V39.356H23.5411V31.782ZM24.8991 34.806H27.1251V36.332H24.8991V34.806ZM29.714 32.51H31.17V34.008C31.17 34.7453 31.0673 35.464 30.862 36.164C30.6567 36.864 30.3347 37.4893 29.896 38.04C29.4667 38.5907 28.8973 39.02 28.188 39.328L27.208 37.886C27.8053 37.6153 28.286 37.27 28.65 36.85C29.0233 36.43 29.294 35.9727 29.462 35.478C29.63 34.9833 29.714 34.4933 29.714 34.008V32.51ZM30.064 32.51H31.52V34.008C31.52 34.484 31.5993 34.9507 31.758 35.408C31.9167 35.856 32.1733 36.2667 32.528 36.64C32.8827 37.0133 33.3447 37.3213 33.914 37.564L32.934 38.978C32.262 38.698 31.7113 38.306 31.282 37.802C30.862 37.2887 30.554 36.71 30.358 36.066C30.162 35.4127 30.064 34.7267 30.064 34.008V32.51ZM36.658 31.782H38.436V39.65H36.658V31.782ZM35.118 34.932H37.176V36.43H35.118V34.932ZM33.928 31.978H35.664V39.58H33.928V31.978ZM29.518 40.21H38.436V44.746H36.574V41.694H29.518V40.21Z" fill="#2B2B2B"/>
</svg>
