<svg width="24" height="43" viewBox="0 0 24 43" fill="none" xmlns="http://www.w3.org/2000/svg">
<path d="M8 2V6M16 2V6M3 10H21M9 16L11 18L15 14M5 4H19C20.1046 4 21 4.89543 21 6V20C21 21.1046 20.1046 22 19 22H5C3.89543 22 3 21.1046 3 20V6C3 4.89543 3.89543 4 5 4Z" stroke="#A498BD" stroke-linecap="round" stroke-linejoin="round"/>
<path d="M2.34094 32.336H3.18094C3.91694 32.336 4.56094 32.328 5.11294 32.312C5.67294 32.288 6.19294 32.248 6.67294 32.192C7.16094 32.136 7.64894 32.06 8.13694 31.964L8.25694 32.756C7.75294 32.86 7.25294 32.94 6.75694 32.996C6.26094 33.052 5.72494 33.092 5.14894 33.116C4.58094 33.132 3.92494 33.14 3.18094 33.14H2.34094V32.336ZM2.34094 28.7H7.12894V29.504H3.32494V32.804H2.34094V28.7ZM9.28894 28.076H10.2849V33.536H9.28894V28.076ZM10.0089 30.356H11.8809V31.184H10.0089V30.356ZM3.38494 34.088H10.2849V36.776H4.39294V38.444H3.42094V36.008H9.30094V34.892H3.38494V34.088ZM3.42094 37.976H10.6689V38.792H3.42094V37.976ZM12.756 33.464H13.524C14.236 33.464 14.844 33.46 15.348 33.452C15.86 33.436 16.324 33.408 16.74 33.368C17.164 33.328 17.592 33.268 18.024 33.188L18.12 34.004C17.792 34.06 17.468 34.108 17.148 34.148C16.828 34.18 16.492 34.204 16.14 34.22C15.788 34.236 15.4 34.248 14.976 34.256C14.552 34.264 14.068 34.268 13.524 34.268H12.756V33.464ZM12.732 28.736H17.4V31.808H13.74V33.944H12.756V31.04H16.416V29.54H12.732V28.736ZM20.232 28.088H21.228V34.76H20.232V28.088ZM18.12 29.696H20.46V30.5H18.12V29.696ZM18.12 31.94H20.46V32.756H18.12V31.94ZM13.968 35.336H21.228V38.948H20.232V36.152H13.968V35.336Z" fill="#A498BD"/>
</svg>
