<svg width="25" height="43" viewBox="0 0 25 43" fill="none" xmlns="http://www.w3.org/2000/svg">
<path d="M16.666 2V4M7.66602 22V20C7.66602 19.4696 7.87673 18.9609 8.2518 18.5858C8.62687 18.2107 9.13558 18 9.66602 18H15.666C16.1964 18 16.7052 18.2107 17.0802 18.5858C17.4553 18.9609 17.666 19.4696 17.666 20V22M8.66602 2V4M15.666 11C15.666 12.6569 14.3229 14 12.666 14C11.0092 14 9.66602 12.6569 9.66602 11C9.66602 9.34315 11.0092 8 12.666 8C14.3229 8 15.666 9.34315 15.666 11ZM5.66602 4H19.666C20.7706 4 21.666 4.89543 21.666 6V20C21.666 21.1046 20.7706 22 19.666 22H5.66602C4.56145 22 3.66602 21.1046 3.66602 20V6C3.66602 4.89543 4.56145 4 5.66602 4Z" stroke="#A498BD" stroke-linecap="round" stroke-linejoin="round"/>
<path d="M3.01895 33.128H3.84695C4.57495 33.128 5.21095 33.124 5.75495 33.116C6.30695 33.1 6.81095 33.068 7.26695 33.02C7.73095 32.972 8.20295 32.904 8.68295 32.816L8.79095 33.62C8.30295 33.708 7.81895 33.776 7.33895 33.824C6.86695 33.864 6.35095 33.892 5.79095 33.908C5.23095 33.924 4.58295 33.932 3.84695 33.932H3.01895V33.128ZM3.01895 28.748H7.97495V29.564H4.01495V33.512H3.01895V28.748ZM3.69095 30.908H7.78295V31.712H3.69095V30.908ZM4.13495 35.036H10.951V38.792H4.13495V35.036ZM9.96695 35.828H5.10695V37.976H9.96695V35.828ZM9.95495 28.076H10.951V34.46H9.95495V28.076ZM10.675 30.764H12.547V31.604H10.675V30.764ZM15.234 28.736H16.026V30.176C16.026 30.72 15.926 31.26 15.726 31.796C15.534 32.332 15.25 32.816 14.874 33.248C14.498 33.68 14.042 34.016 13.506 34.256L12.966 33.476C13.438 33.26 13.842 32.972 14.178 32.612C14.522 32.252 14.782 31.86 14.958 31.436C15.142 31.012 15.234 30.592 15.234 30.176V28.736ZM15.402 28.736H16.194V30.176C16.194 30.584 16.278 30.988 16.446 31.388C16.622 31.78 16.874 32.136 17.202 32.456C17.53 32.776 17.922 33.028 18.378 33.212L17.85 33.98C17.33 33.764 16.886 33.46 16.518 33.068C16.15 32.676 15.87 32.232 15.678 31.736C15.494 31.24 15.402 30.72 15.402 30.176V28.736ZM21.162 28.088H22.11V34.64H21.162V28.088ZM19.41 30.908H21.45V31.736H19.41V30.908ZM18.834 28.28H19.77V34.58H18.834V28.28ZM14.838 35.24H22.11V38.936H21.126V36.056H14.838V35.24Z" fill="#A498BD"/>
</svg>
