<svg width="54" height="53" viewBox="0 0 54 53" fill="none" xmlns="http://www.w3.org/2000/svg">
<path d="M29.834 15.5H24.834M29.834 11.5H24.834M33.834 20.5V8.5C33.834 7.96957 33.6233 7.46086 33.2482 7.08579C32.8731 6.71071 32.3644 6.5 31.834 6.5H18.834M18.834 6.5C19.3644 6.5 19.8731 6.71071 20.2482 7.08579C20.6233 7.46086 20.834 7.96957 20.834 8.5V22.5C20.834 23.0304 21.0447 23.5391 21.4198 23.9142C21.7948 24.2893 22.3036 24.5 22.834 24.5M18.834 6.5C18.3036 6.5 17.7948 6.71071 17.4198 7.08579C17.0447 7.46086 16.834 7.96957 16.834 8.5V10.5C16.834 10.7652 16.9393 11.0196 17.1269 11.2071C17.3144 11.3946 17.5688 11.5 17.834 11.5H20.834M22.834 24.5H34.834C35.3644 24.5 35.8731 24.2893 36.2482 23.9142C36.6233 23.5391 36.834 23.0304 36.834 22.5V21.5C36.834 21.2348 36.7286 20.9804 36.5411 20.7929C36.3536 20.6054 36.0992 20.5 35.834 20.5H25.834C25.5688 20.5 25.3144 20.6054 25.1269 20.7929C24.9393 20.9804 24.834 21.2348 24.834 21.5V22.5C24.834 23.0304 24.6233 23.5391 24.2482 23.9142C23.8731 24.2893 23.3644 24.5 22.834 24.5Z" stroke="#2B2B2B" stroke-width="2" stroke-linecap="round" stroke-linejoin="round"/>
<path d="M20.6611 39.846C21.5944 39.846 22.4064 39.944 23.0971 40.14C23.7877 40.336 24.3197 40.616 24.6931 40.98C25.0757 41.344 25.2671 41.7827 25.2671 42.296C25.2671 42.8 25.0757 43.234 24.6931 43.598C24.3197 43.9713 23.7877 44.256 23.0971 44.452C22.4064 44.648 21.5944 44.746 20.6611 44.746C19.7371 44.746 18.9297 44.648 18.2391 44.452C17.5484 44.256 17.0117 43.9713 16.6291 43.598C16.2557 43.234 16.0691 42.8 16.0691 42.296C16.0691 41.7827 16.2557 41.344 16.6291 40.98C17.0117 40.616 17.5484 40.336 18.2391 40.14C18.9297 39.944 19.7371 39.846 20.6611 39.846ZM20.6611 41.246C20.0824 41.246 19.5877 41.2833 19.1771 41.358C18.7664 41.4327 18.4537 41.5493 18.2391 41.708C18.0337 41.8667 17.9311 42.0627 17.9311 42.296C17.9311 42.5293 18.0337 42.7253 18.2391 42.884C18.4537 43.0333 18.7664 43.15 19.1771 43.234C19.5877 43.3087 20.0824 43.346 20.6611 43.346C21.2491 43.346 21.7484 43.3087 22.1591 43.234C22.5697 43.15 22.8824 43.0333 23.0971 42.884C23.3117 42.7253 23.4191 42.5293 23.4191 42.296C23.4191 42.0627 23.3117 41.8667 23.0971 41.708C22.8824 41.5493 22.5697 41.4327 22.1591 41.358C21.7484 41.2833 21.2491 41.246 20.6611 41.246ZM16.2091 32.356H24.4271V33.812H16.2091V32.356ZM14.9071 37.564H26.5691V39.034H14.9071V37.564ZM19.2191 35.296H21.0811V37.928H19.2191V35.296ZM23.3351 32.356H25.1971V33.42C25.1971 33.9333 25.1831 34.47 25.1551 35.03C25.1271 35.59 25.0197 36.206 24.8331 36.878L22.9851 36.696C23.1624 36.0333 23.2651 35.4453 23.2931 34.932C23.3211 34.4187 23.3351 33.9147 23.3351 33.42V32.356ZM28.262 32.874H36.466V34.358H28.262V32.874ZM27.058 41.666H38.79V43.178H27.058V41.666ZM31.202 37.214H33.078V42.422H31.202V37.214ZM35.794 32.874H37.67V34.106C37.67 34.6473 37.6607 35.2213 37.642 35.828C37.6327 36.4347 37.5907 37.1067 37.516 37.844C37.4507 38.5813 37.3293 39.4073 37.152 40.322L35.29 40.126C35.5513 38.8287 35.7007 37.6993 35.738 36.738C35.7753 35.7673 35.794 34.89 35.794 34.106V32.874Z" fill="#2B2B2B"/>
</svg>
