<svg width="25" height="43" viewBox="0 0 25 43" fill="none" xmlns="http://www.w3.org/2000/svg">
<path d="M15.334 12H10.334M15.334 8H10.334M19.334 17V5C19.334 4.46957 19.1233 3.96086 18.7482 3.58579C18.3731 3.21071 17.8644 3 17.334 3H4.33398M4.33398 3C4.86442 3 5.37313 3.21071 5.7482 3.58579C6.12327 3.96086 6.33398 4.46957 6.33398 5V19C6.33398 19.5304 6.5447 20.0391 6.91977 20.4142C7.29484 20.7893 7.80355 21 8.33398 21M4.33398 3C3.80355 3 3.29484 3.21071 2.91977 3.58579C2.5447 3.96086 2.33398 4.46957 2.33398 5V7C2.33398 7.26522 2.43934 7.51957 2.62688 7.70711C2.81441 7.89464 3.06877 8 3.33398 8H6.33398M8.33398 21H20.334C20.8644 21 21.3731 20.7893 21.7482 20.4142C22.1233 20.0391 22.334 19.5304 22.334 19V18C22.334 17.7348 22.2286 17.4804 22.0411 17.2929C21.8536 17.1054 21.5992 17 21.334 17H11.334C11.0688 17 10.8144 17.1054 10.6269 17.2929C10.4393 17.4804 10.334 17.7348 10.334 18V19C10.334 19.5304 10.1233 20.0391 9.7482 20.4142C9.37312 20.7893 8.86442 21 8.33398 21Z" stroke="#A498BD" stroke-linecap="round" stroke-linejoin="round"/>
<path d="M7.05492 34.928C7.83092 34.928 8.49892 35.008 9.05892 35.168C9.62692 35.328 10.0629 35.556 10.3669 35.852C10.6789 36.148 10.8349 36.508 10.8349 36.932C10.8349 37.34 10.6789 37.696 10.3669 38C10.0629 38.296 9.62692 38.52 9.05892 38.672C8.49892 38.832 7.83092 38.912 7.05492 38.912C6.28692 38.912 5.61892 38.832 5.05092 38.672C4.48292 38.52 4.04692 38.296 3.74292 38C3.43892 37.696 3.28692 37.34 3.28692 36.932C3.28692 36.508 3.43892 36.148 3.74292 35.852C4.04692 35.556 4.48292 35.328 5.05092 35.168C5.61892 35.008 6.28692 34.928 7.05492 34.928ZM7.05492 35.696C6.48692 35.696 5.99492 35.748 5.57892 35.852C5.16292 35.948 4.83892 36.088 4.60692 36.272C4.38292 36.456 4.27092 36.676 4.27092 36.932C4.27092 37.172 4.38292 37.384 4.60692 37.568C4.83892 37.752 5.16292 37.892 5.57892 37.988C5.99492 38.084 6.48692 38.132 7.05492 38.132C7.63092 38.132 8.12692 38.084 8.54292 37.988C8.95892 37.892 9.27892 37.752 9.50292 37.568C9.73492 37.384 9.85092 37.172 9.85092 36.932C9.85092 36.676 9.73492 36.456 9.50292 36.272C9.27892 36.088 8.95892 35.948 8.54292 35.852C8.12692 35.748 7.63092 35.696 7.05492 35.696ZM3.35892 28.628H10.3429V29.432H3.35892V28.628ZM2.20692 33.128H11.9869V33.944H2.20692V33.128ZM6.22692 31.04H7.21092V33.368H6.22692V31.04ZM9.76692 28.628H10.7509V29.54C10.7509 29.98 10.7389 30.432 10.7149 30.896C10.6909 31.352 10.6029 31.86 10.4509 32.42L9.47892 32.312C9.62292 31.752 9.70692 31.256 9.73092 30.824C9.75492 30.392 9.76692 29.964 9.76692 29.54V28.628ZM13.678 29.168H20.662V29.984H13.678V29.168ZM12.634 36.584H22.438V37.412H12.634V36.584ZM16.45 32.708H17.434V37.004H16.45V32.708ZM20.278 29.168H21.274V30.236C21.274 30.684 21.266 31.156 21.25 31.652C21.242 32.148 21.21 32.692 21.154 33.284C21.106 33.876 21.014 34.536 20.878 35.264L19.87 35.144C20.078 34.104 20.198 33.192 20.23 32.408C20.262 31.616 20.278 30.892 20.278 30.236V29.168Z" fill="#A498BD"/>
</svg>
