<svg width="53" height="53" viewBox="0 0 53 53" fill="none" xmlns="http://www.w3.org/2000/svg">
<path d="M22.5 5.5V9.5M30.5 5.5V9.5M17.5 13.5H35.5M23.5 19.5L25.5 21.5L29.5 17.5M19.5 7.5H33.5C34.6046 7.5 35.5 8.39543 35.5 9.5V23.5C35.5 24.6046 34.6046 25.5 33.5 25.5H19.5C18.3954 25.5 17.5 24.6046 17.5 23.5V9.5C17.5 8.39543 18.3954 7.5 19.5 7.5Z" stroke="#2B2B2B" stroke-width="2" stroke-linecap="round" stroke-linejoin="round"/>
<path d="M14.9791 36.472H16.0571C16.9624 36.472 17.7464 36.4627 18.4091 36.444C19.0718 36.416 19.6784 36.374 20.2291 36.318C20.7891 36.2527 21.3398 36.164 21.8811 36.052L22.0771 37.494C21.5171 37.6153 20.9524 37.7087 20.3831 37.774C19.8138 37.8393 19.1838 37.886 18.4931 37.914C17.8024 37.9327 16.9904 37.942 16.0571 37.942H14.9791V36.472ZM14.9791 32.44H20.7891V33.896H16.8411V37.298H14.9791V32.44ZM22.8751 31.768H24.7371V38.208H22.8751V31.768ZM24.2331 34.218H26.4591V35.73H24.2331V34.218ZM16.1831 38.754H24.7371V42.324H18.0451V43.878H16.1971V40.966H22.9031V40.21H16.1831V38.754ZM16.1971 43.136H25.1151V44.606H16.1971V43.136ZM27.214 37.942H28.194C29.006 37.942 29.7013 37.9373 30.28 37.928C30.868 37.9093 31.4047 37.8767 31.89 37.83C32.3753 37.7833 32.856 37.718 33.332 37.634L33.528 39.118C33.1453 39.1833 32.7673 39.2393 32.394 39.286C32.03 39.3327 31.638 39.3653 31.218 39.384C30.8073 39.4027 30.3547 39.4167 29.86 39.426C29.3747 39.4353 28.8193 39.44 28.194 39.44H27.214V37.942ZM27.186 32.51H32.884V36.598H29.062V38.936H27.214V35.212H31.05V33.994H27.186V32.51ZM35.698 31.782H37.574V39.776H35.698V31.782ZM33.626 33.574H36.048V35.058H33.626V33.574ZM33.626 36.332H36.048V37.816H33.626V36.332ZM28.684 40.364H37.574V44.746H35.698V41.834H28.684V40.364Z" fill="#2B2B2B"/>
</svg>
