<svg width="55" height="55" viewBox="0 0 55 55" fill="none" xmlns="http://www.w3.org/2000/svg">
<rect width="55" height="55" rx="27.5" fill="#A498BD"/>
<path d="M17.3555 22.7882V17H23.3853C25.5076 17.3859 24.9127 19.4118 24.35 20.3765C22.8065 24.8141 27.0833 24.798 29.4147 24.2353C32.3088 23.0776 31.1029 20.5373 30.1382 19.4118C29.5594 17.8682 31.0225 17.1608 31.8265 17H37.8559V23.0294C37.6629 23.9941 38.901 24.7176 39.5441 24.9588C43.7888 21.4859 45.0108 25.1196 45.0912 27.3706C44.5124 32.0012 41.7951 31.2294 40.5088 30.2647C38.7724 29.1071 37.8559 30.4255 37.6147 31.2294V37.5H17.3559V31.4706C16.7771 28.5765 14.2203 29.7824 13.0143 30.7471C9.92722 31.1329 9.79859 27.6922 10.1202 25.9235C10.8919 22.0647 14.1398 23.5118 15.6672 24.7176C17.0178 24.7176 17.3555 23.4314 17.3555 22.7882Z" stroke="#F9F9FC" stroke-width="1.20588" stroke-linejoin="round"/>
<ellipse cx="23.9881" cy="29.0584" rx="0.964706" ry="1.44706" fill="#F9F9FC"/>
<ellipse cx="31.2225" cy="29.0584" rx="0.964706" ry="1.44706" fill="#F9F9FC"/>
<path d="M23.9883 32.4766C24.9219 35.7805 29.7964 35.9518 31.2235 32.4354" stroke="#F9F9FC" stroke-width="1.20588" stroke-linecap="round" stroke-linejoin="round"/>
</svg>
